<mxfile host="app.diagrams.net" modified="2021-03-22T20:41:52.023Z" agent="5.0 (Windows NT 10.0; Win64; x64) AppleWebKit/537.36 (KHTML, like Gecko) Chrome/89.0.4389.90 Safari/537.36" etag="azAVhJbfmBK41V4Iv3-5" version="14.5.0" type="github" pages="2">
  <diagram id="ARH5aImlDJQzNbsXuoi2" name="Page-1">
    <mxGraphModel dx="3870" dy="3378" grid="1" gridSize="10" guides="1" tooltips="1" connect="1" arrows="1" fold="1" page="1" pageScale="1" pageWidth="827" pageHeight="1169" math="0" shadow="0">
      <root>
        <mxCell id="0" />
        <mxCell id="1" parent="0" />
        <mxCell id="mvBOg-nYU6NL9uwTwKON-1" value="Admin" style="shape=umlActor;verticalLabelPosition=bottom;verticalAlign=top;html=1;outlineConnect=0;" parent="1" vertex="1">
          <mxGeometry x="435" y="-390" width="30" height="60" as="geometry" />
        </mxCell>
        <mxCell id="mvBOg-nYU6NL9uwTwKON-2" value="" style="endArrow=classic;html=1;exitX=0.5;exitY=0.5;exitDx=0;exitDy=0;exitPerimeter=0;entryX=0.5;entryY=0;entryDx=0;entryDy=0;" parent="1" source="mvBOg-nYU6NL9uwTwKON-1" target="mvBOg-nYU6NL9uwTwKON-3" edge="1">
          <mxGeometry width="50" height="50" relative="1" as="geometry">
            <mxPoint x="445" y="20" as="sourcePoint" />
            <mxPoint x="450" y="-250" as="targetPoint" />
          </mxGeometry>
        </mxCell>
        <mxCell id="mvBOg-nYU6NL9uwTwKON-3" value="" style="rounded=0;whiteSpace=wrap;html=1;" parent="1" vertex="1">
          <mxGeometry x="390" y="-250" width="120" height="60" as="geometry" />
        </mxCell>
        <mxCell id="mvBOg-nYU6NL9uwTwKON-4" value="Page de connexion&amp;nbsp;" style="text;html=1;strokeColor=none;fillColor=none;align=center;verticalAlign=middle;whiteSpace=wrap;rounded=0;" parent="1" vertex="1">
          <mxGeometry x="390" y="-250" width="125" height="60" as="geometry" />
        </mxCell>
        <mxCell id="mvBOg-nYU6NL9uwTwKON-5" value="Login" style="text;html=1;strokeColor=none;fillColor=none;align=center;verticalAlign=middle;whiteSpace=wrap;rounded=0;" parent="1" vertex="1">
          <mxGeometry x="449" y="-290" width="40" height="20" as="geometry" />
        </mxCell>
        <mxCell id="mvBOg-nYU6NL9uwTwKON-6" value="" style="rounded=0;whiteSpace=wrap;html=1;" parent="1" vertex="1">
          <mxGeometry x="210" y="-65" width="485" height="535" as="geometry" />
        </mxCell>
        <mxCell id="mvBOg-nYU6NL9uwTwKON-7" value="" style="endArrow=classic;html=1;exitX=0.5;exitY=1;exitDx=0;exitDy=0;entryX=0.5;entryY=0;entryDx=0;entryDy=0;" parent="1" source="mvBOg-nYU6NL9uwTwKON-4" target="mvBOg-nYU6NL9uwTwKON-6" edge="1">
          <mxGeometry width="50" height="50" relative="1" as="geometry">
            <mxPoint x="390" y="430" as="sourcePoint" />
            <mxPoint x="440" y="380" as="targetPoint" />
          </mxGeometry>
        </mxCell>
        <mxCell id="mvBOg-nYU6NL9uwTwKON-8" value="" style="rounded=0;whiteSpace=wrap;html=1;" parent="1" vertex="1">
          <mxGeometry x="217.5" y="15" width="112.5" height="425" as="geometry" />
        </mxCell>
        <mxCell id="mvBOg-nYU6NL9uwTwKON-9" value="Page Tableau bord" style="text;html=1;strokeColor=none;fillColor=none;align=center;verticalAlign=middle;whiteSpace=wrap;rounded=0;" parent="1" vertex="1">
          <mxGeometry x="235" y="-65" width="125" height="20" as="geometry" />
        </mxCell>
        <mxCell id="mvBOg-nYU6NL9uwTwKON-10" value="Nav" style="text;html=1;strokeColor=none;fillColor=none;align=center;verticalAlign=middle;whiteSpace=wrap;rounded=0;" parent="1" vertex="1">
          <mxGeometry x="223.75" y="25" width="40" height="20" as="geometry" />
        </mxCell>
        <mxCell id="mvBOg-nYU6NL9uwTwKON-11" value="Utilisateurs :&lt;br&gt;-CrÃ©ation/Modification&lt;br&gt;- Liste" style="rounded=0;whiteSpace=wrap;html=1;" parent="1" vertex="1">
          <mxGeometry x="223.75" y="45" width="100" height="75" as="geometry" />
        </mxCell>
        <mxCell id="hwvQYhv3dfhFRNOniil5-197" style="edgeStyle=orthogonalEdgeStyle;rounded=0;orthogonalLoop=1;jettySize=auto;html=1;entryX=0;entryY=0.5;entryDx=0;entryDy=0;" parent="1" source="mvBOg-nYU6NL9uwTwKON-13" target="hwvQYhv3dfhFRNOniil5-185" edge="1">
          <mxGeometry relative="1" as="geometry">
            <Array as="points">
              <mxPoint x="275" y="280" />
              <mxPoint x="190" y="280" />
              <mxPoint x="190" y="610" />
              <mxPoint x="720" y="610" />
              <mxPoint x="720" y="1030" />
              <mxPoint x="850" y="1030" />
            </Array>
          </mxGeometry>
        </mxCell>
        <mxCell id="hwvQYhv3dfhFRNOniil5-198" value="&lt;span style=&quot;font-size: 12px ; background-color: rgb(248 , 249 , 250)&quot;&gt;click icon nave&lt;/span&gt;" style="edgeLabel;html=1;align=center;verticalAlign=middle;resizable=0;points=[];" parent="hwvQYhv3dfhFRNOniil5-197" vertex="1" connectable="0">
          <mxGeometry x="0.4473" y="1" relative="1" as="geometry">
            <mxPoint as="offset" />
          </mxGeometry>
        </mxCell>
        <mxCell id="mvBOg-nYU6NL9uwTwKON-13" value="Campus" style="rounded=0;whiteSpace=wrap;html=1;" parent="1" vertex="1">
          <mxGeometry x="225" y="285" width="100" height="50" as="geometry" />
        </mxCell>
        <mxCell id="mvBOg-nYU6NL9uwTwKON-14" value="Liste Promotion(10 max)" style="rounded=0;whiteSpace=wrap;html=1;" parent="1" vertex="1">
          <mxGeometry x="355" y="15" width="170" height="120" as="geometry" />
        </mxCell>
        <mxCell id="mvBOg-nYU6NL9uwTwKON-15" value="Liste Salle (10 max)" style="rounded=0;whiteSpace=wrap;html=1;" parent="1" vertex="1">
          <mxGeometry x="555" y="15" width="130" height="240" as="geometry" />
        </mxCell>
        <mxCell id="mvBOg-nYU6NL9uwTwKON-16" value="Liste Box(10 max)" style="rounded=0;whiteSpace=wrap;html=1;" parent="1" vertex="1">
          <mxGeometry x="355" y="145" width="170" height="110" as="geometry" />
        </mxCell>
        <mxCell id="mvBOg-nYU6NL9uwTwKON-18" value="Logo iut&amp;nbsp;" style="rounded=0;whiteSpace=wrap;html=1;" parent="1" vertex="1">
          <mxGeometry x="215" y="-35" width="470" height="40" as="geometry" />
        </mxCell>
        <mxCell id="mvBOg-nYU6NL9uwTwKON-19" value="Nom admin" style="text;html=1;strokeColor=none;fillColor=none;align=center;verticalAlign=middle;whiteSpace=wrap;rounded=0;" parent="1" vertex="1">
          <mxGeometry x="635" y="-25" width="40" height="20" as="geometry" />
        </mxCell>
        <mxCell id="mvBOg-nYU6NL9uwTwKON-20" value="" style="endArrow=classic;html=1;exitX=0;exitY=0.5;exitDx=0;exitDy=0;entryX=1.008;entryY=0.198;entryDx=0;entryDy=0;entryPerimeter=0;" parent="1" source="mvBOg-nYU6NL9uwTwKON-11" edge="1">
          <mxGeometry width="50" height="50" relative="1" as="geometry">
            <mxPoint x="390" y="520" as="sourcePoint" />
            <mxPoint x="36.38000000000011" y="327.1199999999999" as="targetPoint" />
            <Array as="points">
              <mxPoint x="80" y="70" />
              <mxPoint x="80" y="327" />
            </Array>
          </mxGeometry>
        </mxCell>
        <mxCell id="hwvQYhv3dfhFRNOniil5-13" value="" style="rounded=0;whiteSpace=wrap;html=1;" parent="1" vertex="1">
          <mxGeometry x="157.75" y="710" width="485" height="355" as="geometry" />
        </mxCell>
        <mxCell id="hwvQYhv3dfhFRNOniil5-14" value="" style="rounded=0;whiteSpace=wrap;html=1;" parent="1" vertex="1">
          <mxGeometry x="164" y="780" width="112.5" height="240" as="geometry" />
        </mxCell>
        <mxCell id="hwvQYhv3dfhFRNOniil5-15" value="Page Utilisateur" style="text;html=1;strokeColor=none;fillColor=none;align=center;verticalAlign=middle;whiteSpace=wrap;rounded=0;" parent="1" vertex="1">
          <mxGeometry x="170.25" y="710" width="90" height="20" as="geometry" />
        </mxCell>
        <mxCell id="hwvQYhv3dfhFRNOniil5-16" value="Nav" style="text;html=1;strokeColor=none;fillColor=none;align=center;verticalAlign=middle;whiteSpace=wrap;rounded=0;" parent="1" vertex="1">
          <mxGeometry x="164" y="780" width="40" height="20" as="geometry" />
        </mxCell>
        <mxCell id="hwvQYhv3dfhFRNOniil5-17" value="Page Utilisateur" style="rounded=0;whiteSpace=wrap;html=1;" parent="1" vertex="1">
          <mxGeometry x="170.25" y="800" width="100" height="50" as="geometry" />
        </mxCell>
        <mxCell id="hwvQYhv3dfhFRNOniil5-18" value="page Capteur" style="rounded=0;whiteSpace=wrap;html=1;" parent="1" vertex="1">
          <mxGeometry x="170.25" y="870" width="100" height="50" as="geometry" />
        </mxCell>
        <mxCell id="hwvQYhv3dfhFRNOniil5-19" value="Liste Salle" style="rounded=0;whiteSpace=wrap;html=1;" parent="1" vertex="1">
          <mxGeometry x="170.25" y="950" width="100" height="50" as="geometry" />
        </mxCell>
        <mxCell id="hwvQYhv3dfhFRNOniil5-20" value="Liste Utilisateur :&amp;nbsp;&lt;br&gt;dans cette page l&#39;admin pourra voir la liste de tout les utilisateur .il pourra cliquer sur une Icon pour faire une modification ou alors pour supprimer le compte. il pourra filtras les utilisateurs par classe si il veut.&amp;nbsp;&amp;nbsp;" style="rounded=0;whiteSpace=wrap;html=1;" parent="1" vertex="1">
          <mxGeometry x="290.25" y="780" width="200" height="240" as="geometry" />
        </mxCell>
        <mxCell id="hwvQYhv3dfhFRNOniil5-21" value="Logo iut&amp;nbsp;" style="rounded=0;whiteSpace=wrap;html=1;" parent="1" vertex="1">
          <mxGeometry x="164" y="730" width="470" height="40" as="geometry" />
        </mxCell>
        <mxCell id="hwvQYhv3dfhFRNOniil5-22" value="Nom admin" style="text;html=1;strokeColor=none;fillColor=none;align=center;verticalAlign=middle;whiteSpace=wrap;rounded=0;" parent="1" vertex="1">
          <mxGeometry x="580.25" y="740" width="40" height="20" as="geometry" />
        </mxCell>
        <mxCell id="hwvQYhv3dfhFRNOniil5-23" value="Saissi d&#39;ajout ou de modification" style="rounded=0;whiteSpace=wrap;html=1;" parent="1" vertex="1">
          <mxGeometry x="510.25" y="780" width="120" height="50" as="geometry" />
        </mxCell>
        <mxCell id="hwvQYhv3dfhFRNOniil5-24" value="" style="rounded=0;whiteSpace=wrap;html=1;" parent="1" vertex="1">
          <mxGeometry x="157.75" y="710" width="485" height="480" as="geometry" />
        </mxCell>
        <mxCell id="hwvQYhv3dfhFRNOniil5-25" value="" style="rounded=0;whiteSpace=wrap;html=1;" parent="1" vertex="1">
          <mxGeometry x="164" y="780" width="112.5" height="360" as="geometry" />
        </mxCell>
        <mxCell id="hwvQYhv3dfhFRNOniil5-26" value="Page Box" style="text;html=1;strokeColor=none;fillColor=none;align=center;verticalAlign=middle;whiteSpace=wrap;rounded=0;" parent="1" vertex="1">
          <mxGeometry x="170.25" y="710" width="90" height="20" as="geometry" />
        </mxCell>
        <mxCell id="hwvQYhv3dfhFRNOniil5-27" value="Nav" style="text;html=1;strokeColor=none;fillColor=none;align=center;verticalAlign=middle;whiteSpace=wrap;rounded=0;" parent="1" vertex="1">
          <mxGeometry x="164" y="780" width="40" height="20" as="geometry" />
        </mxCell>
        <mxCell id="hwvQYhv3dfhFRNOniil5-28" value="Page Utilisateur" style="rounded=0;whiteSpace=wrap;html=1;" parent="1" vertex="1">
          <mxGeometry x="170.25" y="800" width="100" height="50" as="geometry" />
        </mxCell>
        <mxCell id="hwvQYhv3dfhFRNOniil5-29" value="page Box" style="rounded=0;whiteSpace=wrap;html=1;" parent="1" vertex="1">
          <mxGeometry x="170.25" y="870" width="100" height="50" as="geometry" />
        </mxCell>
        <mxCell id="hwvQYhv3dfhFRNOniil5-30" value="Liste Lieu" style="rounded=0;whiteSpace=wrap;html=1;" parent="1" vertex="1">
          <mxGeometry x="171.25" y="1010" width="100" height="50" as="geometry" />
        </mxCell>
        <mxCell id="hwvQYhv3dfhFRNOniil5-31" value="Liste Box:&amp;nbsp;&lt;br&gt;dans cette page l&#39;admin pourra voir la liste de tout les Box.il pourra cliquer sur une Icon pour faire une modification ou alors pour supprimer les capteur. il pourra filtras les utilisateurs par Salle si il veut.&lt;br&gt;&lt;br&gt;visualiser :&amp;nbsp;&lt;br&gt;ip , @mac , salle, la fonctionnalitÃ© , Gestion Box" style="rounded=0;whiteSpace=wrap;html=1;" parent="1" vertex="1">
          <mxGeometry x="290.25" y="780" width="337.5" height="340" as="geometry" />
        </mxCell>
        <mxCell id="hwvQYhv3dfhFRNOniil5-32" value="Logo iut&amp;nbsp;" style="rounded=0;whiteSpace=wrap;html=1;" parent="1" vertex="1">
          <mxGeometry x="164" y="730" width="470" height="40" as="geometry" />
        </mxCell>
        <mxCell id="hwvQYhv3dfhFRNOniil5-33" value="Nom admin" style="text;html=1;strokeColor=none;fillColor=none;align=center;verticalAlign=middle;whiteSpace=wrap;rounded=0;" parent="1" vertex="1">
          <mxGeometry x="580.25" y="740" width="40" height="20" as="geometry" />
        </mxCell>
        <mxCell id="hwvQYhv3dfhFRNOniil5-36" value="" style="endArrow=classic;html=1;exitX=0;exitY=0.5;exitDx=0;exitDy=0;entryX=0;entryY=0.25;entryDx=0;entryDy=0;" parent="1" source="mvBOg-nYU6NL9uwTwKON-12" target="hwvQYhv3dfhFRNOniil5-24" edge="1">
          <mxGeometry width="50" height="50" relative="1" as="geometry">
            <mxPoint x="80" y="640" as="sourcePoint" />
            <mxPoint x="130" y="590" as="targetPoint" />
            <Array as="points">
              <mxPoint x="140" y="200" />
              <mxPoint x="140" y="830" />
            </Array>
          </mxGeometry>
        </mxCell>
        <mxCell id="hwvQYhv3dfhFRNOniil5-113" value="&lt;span style=&quot;font-size: 12px ; background-color: rgb(248 , 249 , 250)&quot;&gt;click icon nave&lt;/span&gt;" style="edgeLabel;html=1;align=center;verticalAlign=middle;resizable=0;points=[];" parent="hwvQYhv3dfhFRNOniil5-36" vertex="1" connectable="0">
          <mxGeometry x="0.4098" relative="1" as="geometry">
            <mxPoint as="offset" />
          </mxGeometry>
        </mxCell>
        <mxCell id="hwvQYhv3dfhFRNOniil5-58" value="" style="endArrow=classic;html=1;exitX=0;exitY=0.25;exitDx=0;exitDy=0;entryX=1;entryY=0.5;entryDx=0;entryDy=0;" parent="1" source="mvBOg-nYU6NL9uwTwKON-11" edge="1">
          <mxGeometry width="50" height="50" relative="1" as="geometry">
            <mxPoint x="178.75" y="405" as="sourcePoint" />
            <mxPoint x="32.5" y="-135" as="targetPoint" />
            <Array as="points">
              <mxPoint x="80" y="58" />
              <mxPoint x="80" y="-135" />
            </Array>
          </mxGeometry>
        </mxCell>
        <mxCell id="hwvQYhv3dfhFRNOniil5-59" value="" style="endArrow=classic;html=1;exitX=0.599;exitY=-0.003;exitDx=0;exitDy=0;exitPerimeter=0;entryX=0.604;entryY=1;entryDx=0;entryDy=0;entryPerimeter=0;" parent="1" edge="1">
          <mxGeometry width="50" height="50" relative="1" as="geometry">
            <mxPoint x="-161.98500000000013" y="238.67999999999984" as="sourcePoint" />
            <mxPoint x="-159.55999999999995" y="120" as="targetPoint" />
          </mxGeometry>
        </mxCell>
        <mxCell id="hwvQYhv3dfhFRNOniil5-60" value="" style="rounded=0;whiteSpace=wrap;html=1;" parent="1" vertex="1">
          <mxGeometry x="820" y="245" width="485" height="355" as="geometry" />
        </mxCell>
        <mxCell id="hwvQYhv3dfhFRNOniil5-61" value="" style="rounded=0;whiteSpace=wrap;html=1;" parent="1" vertex="1">
          <mxGeometry x="826.25" y="315" width="112.5" height="240" as="geometry" />
        </mxCell>
        <mxCell id="hwvQYhv3dfhFRNOniil5-62" value="Page Utilisateur" style="text;html=1;strokeColor=none;fillColor=none;align=center;verticalAlign=middle;whiteSpace=wrap;rounded=0;" parent="1" vertex="1">
          <mxGeometry x="832.5" y="245" width="90" height="20" as="geometry" />
        </mxCell>
        <mxCell id="hwvQYhv3dfhFRNOniil5-63" value="Nav" style="text;html=1;strokeColor=none;fillColor=none;align=center;verticalAlign=middle;whiteSpace=wrap;rounded=0;" parent="1" vertex="1">
          <mxGeometry x="826.25" y="315" width="40" height="20" as="geometry" />
        </mxCell>
        <mxCell id="hwvQYhv3dfhFRNOniil5-64" value="Page Utilisateur" style="rounded=0;whiteSpace=wrap;html=1;" parent="1" vertex="1">
          <mxGeometry x="832.5" y="335" width="100" height="50" as="geometry" />
        </mxCell>
        <mxCell id="hwvQYhv3dfhFRNOniil5-65" value="page Capteur" style="rounded=0;whiteSpace=wrap;html=1;" parent="1" vertex="1">
          <mxGeometry x="832.5" y="405" width="100" height="50" as="geometry" />
        </mxCell>
        <mxCell id="hwvQYhv3dfhFRNOniil5-66" value="Liste Salle" style="rounded=0;whiteSpace=wrap;html=1;" parent="1" vertex="1">
          <mxGeometry x="832.5" y="485" width="100" height="50" as="geometry" />
        </mxCell>
        <mxCell id="hwvQYhv3dfhFRNOniil5-67" value="Liste Utilisateur :&amp;nbsp;&lt;br&gt;dans cette page l&#39;admin pourra voir la liste de tout les utilisateur .il pourra cliquer sur une Icon pour faire une modification ou alors pour supprimer le compte. il pourra filtras les utilisateurs par classe si il veut.&amp;nbsp;&amp;nbsp;" style="rounded=0;whiteSpace=wrap;html=1;" parent="1" vertex="1">
          <mxGeometry x="952.5" y="315" width="200" height="240" as="geometry" />
        </mxCell>
        <mxCell id="hwvQYhv3dfhFRNOniil5-68" value="Logo iut&amp;nbsp;" style="rounded=0;whiteSpace=wrap;html=1;" parent="1" vertex="1">
          <mxGeometry x="826.25" y="265" width="470" height="40" as="geometry" />
        </mxCell>
        <mxCell id="hwvQYhv3dfhFRNOniil5-69" value="Nom admin" style="text;html=1;strokeColor=none;fillColor=none;align=center;verticalAlign=middle;whiteSpace=wrap;rounded=0;" parent="1" vertex="1">
          <mxGeometry x="1242.5" y="275" width="40" height="20" as="geometry" />
        </mxCell>
        <mxCell id="hwvQYhv3dfhFRNOniil5-70" value="Saissi d&#39;ajout ou de modification" style="rounded=0;whiteSpace=wrap;html=1;" parent="1" vertex="1">
          <mxGeometry x="1172.5" y="315" width="120" height="50" as="geometry" />
        </mxCell>
        <mxCell id="hwvQYhv3dfhFRNOniil5-71" value="" style="rounded=0;whiteSpace=wrap;html=1;" parent="1" vertex="1">
          <mxGeometry x="820" y="245" width="485" height="495" as="geometry" />
        </mxCell>
        <mxCell id="hwvQYhv3dfhFRNOniil5-72" value="" style="rounded=0;whiteSpace=wrap;html=1;" parent="1" vertex="1">
          <mxGeometry x="826.25" y="315" width="112.5" height="385" as="geometry" />
        </mxCell>
        <mxCell id="hwvQYhv3dfhFRNOniil5-73" value="Page Salle" style="text;html=1;strokeColor=none;fillColor=none;align=center;verticalAlign=middle;whiteSpace=wrap;rounded=0;" parent="1" vertex="1">
          <mxGeometry x="832.5" y="245" width="90" height="20" as="geometry" />
        </mxCell>
        <mxCell id="hwvQYhv3dfhFRNOniil5-74" value="Nav" style="text;html=1;strokeColor=none;fillColor=none;align=center;verticalAlign=middle;whiteSpace=wrap;rounded=0;" parent="1" vertex="1">
          <mxGeometry x="826.25" y="315" width="40" height="20" as="geometry" />
        </mxCell>
        <mxCell id="hwvQYhv3dfhFRNOniil5-75" value="Page Utilisateur" style="rounded=0;whiteSpace=wrap;html=1;" parent="1" vertex="1">
          <mxGeometry x="832.5" y="335" width="100" height="50" as="geometry" />
        </mxCell>
        <mxCell id="hwvQYhv3dfhFRNOniil5-76" value="page Box" style="rounded=0;whiteSpace=wrap;html=1;" parent="1" vertex="1">
          <mxGeometry x="832.5" y="405" width="100" height="50" as="geometry" />
        </mxCell>
        <mxCell id="hwvQYhv3dfhFRNOniil5-77" value="Liste Salle" style="rounded=0;whiteSpace=wrap;html=1;" parent="1" vertex="1">
          <mxGeometry x="832.5" y="560" width="100" height="50" as="geometry" />
        </mxCell>
        <mxCell id="hwvQYhv3dfhFRNOniil5-78" value="Liste Salle:&amp;nbsp;&lt;br&gt;dans cette page l&#39;admin pourra voir la liste de tout les salle.il pourra cliquer sur une Icon pour faire une modification ou alors pour supprimer les salle.&amp;nbsp;&amp;nbsp;&lt;br&gt;&lt;br&gt;&lt;br&gt;visualiser :&lt;br&gt;NÂ°salle, Ã©tage ,Batiment&amp;nbsp;&lt;br&gt;, Class , Accessible,&amp;nbsp; %prÃ©sence , MÂ²,&amp;nbsp;" style="rounded=0;whiteSpace=wrap;html=1;" parent="1" vertex="1">
          <mxGeometry x="952.5" y="315" width="200" height="385" as="geometry" />
        </mxCell>
        <mxCell id="hwvQYhv3dfhFRNOniil5-79" value="Logo iut&amp;nbsp;" style="rounded=0;whiteSpace=wrap;html=1;" parent="1" vertex="1">
          <mxGeometry x="826.25" y="265" width="470" height="40" as="geometry" />
        </mxCell>
        <mxCell id="hwvQYhv3dfhFRNOniil5-80" value="Nom admin" style="text;html=1;strokeColor=none;fillColor=none;align=center;verticalAlign=middle;whiteSpace=wrap;rounded=0;" parent="1" vertex="1">
          <mxGeometry x="1242.5" y="275" width="40" height="20" as="geometry" />
        </mxCell>
        <mxCell id="hwvQYhv3dfhFRNOniil5-81" value="Saissi d&#39;ajout ou de modification" style="rounded=0;whiteSpace=wrap;html=1;" parent="1" vertex="1">
          <mxGeometry x="1172.5" y="315" width="120" height="125" as="geometry" />
        </mxCell>
        <mxCell id="hwvQYhv3dfhFRNOniil5-82" value="" style="endArrow=classic;html=1;exitX=0;exitY=1;exitDx=0;exitDy=0;entryX=0.001;entryY=0.636;entryDx=0;entryDy=0;entryPerimeter=0;" parent="1" source="mvBOg-nYU6NL9uwTwKON-13" target="hwvQYhv3dfhFRNOniil5-71" edge="1">
          <mxGeometry width="50" height="50" relative="1" as="geometry">
            <mxPoint x="280" y="730" as="sourcePoint" />
            <mxPoint x="330" y="680" as="targetPoint" />
            <Array as="points">
              <mxPoint x="200" y="290" />
              <mxPoint x="200" y="560" />
              <mxPoint x="760" y="560" />
            </Array>
          </mxGeometry>
        </mxCell>
        <mxCell id="hwvQYhv3dfhFRNOniil5-118" value="&lt;span style=&quot;font-size: 12px ; background-color: rgb(248 , 249 , 250)&quot;&gt;click icon nav&lt;/span&gt;" style="edgeLabel;html=1;align=center;verticalAlign=middle;resizable=0;points=[];" parent="hwvQYhv3dfhFRNOniil5-82" vertex="1" connectable="0">
          <mxGeometry x="-0.0599" y="-4" relative="1" as="geometry">
            <mxPoint as="offset" />
          </mxGeometry>
        </mxCell>
        <mxCell id="hwvQYhv3dfhFRNOniil5-88" value="" style="rounded=0;whiteSpace=wrap;html=1;" parent="1" vertex="1">
          <mxGeometry x="171.5" y="1380" width="485" height="355" as="geometry" />
        </mxCell>
        <mxCell id="hwvQYhv3dfhFRNOniil5-89" value="" style="rounded=0;whiteSpace=wrap;html=1;" parent="1" vertex="1">
          <mxGeometry x="177.75" y="1450" width="112.5" height="240" as="geometry" />
        </mxCell>
        <mxCell id="hwvQYhv3dfhFRNOniil5-90" value="Page Utilisateur" style="text;html=1;strokeColor=none;fillColor=none;align=center;verticalAlign=middle;whiteSpace=wrap;rounded=0;" parent="1" vertex="1">
          <mxGeometry x="184" y="1380" width="90" height="20" as="geometry" />
        </mxCell>
        <mxCell id="hwvQYhv3dfhFRNOniil5-91" value="Nav" style="text;html=1;strokeColor=none;fillColor=none;align=center;verticalAlign=middle;whiteSpace=wrap;rounded=0;" parent="1" vertex="1">
          <mxGeometry x="177.75" y="1450" width="40" height="20" as="geometry" />
        </mxCell>
        <mxCell id="hwvQYhv3dfhFRNOniil5-92" value="Page Utilisateur" style="rounded=0;whiteSpace=wrap;html=1;" parent="1" vertex="1">
          <mxGeometry x="184" y="1470" width="100" height="50" as="geometry" />
        </mxCell>
        <mxCell id="hwvQYhv3dfhFRNOniil5-93" value="page Capteur" style="rounded=0;whiteSpace=wrap;html=1;" parent="1" vertex="1">
          <mxGeometry x="184" y="1540" width="100" height="50" as="geometry" />
        </mxCell>
        <mxCell id="hwvQYhv3dfhFRNOniil5-94" value="Liste Salle" style="rounded=0;whiteSpace=wrap;html=1;" parent="1" vertex="1">
          <mxGeometry x="184" y="1620" width="100" height="50" as="geometry" />
        </mxCell>
        <mxCell id="hwvQYhv3dfhFRNOniil5-95" value="Liste Utilisateur :&amp;nbsp;&lt;br&gt;dans cette page l&#39;admin pourra voir la liste de tout les utilisateur .il pourra cliquer sur une Icon pour faire une modification ou alors pour supprimer le compte. il pourra filtras les utilisateurs par classe si il veut.&amp;nbsp;&amp;nbsp;" style="rounded=0;whiteSpace=wrap;html=1;" parent="1" vertex="1">
          <mxGeometry x="304" y="1450" width="200" height="240" as="geometry" />
        </mxCell>
        <mxCell id="hwvQYhv3dfhFRNOniil5-96" value="Logo iut&amp;nbsp;" style="rounded=0;whiteSpace=wrap;html=1;" parent="1" vertex="1">
          <mxGeometry x="177.75" y="1400" width="470" height="40" as="geometry" />
        </mxCell>
        <mxCell id="hwvQYhv3dfhFRNOniil5-97" value="Nom admin" style="text;html=1;strokeColor=none;fillColor=none;align=center;verticalAlign=middle;whiteSpace=wrap;rounded=0;" parent="1" vertex="1">
          <mxGeometry x="594" y="1410" width="40" height="20" as="geometry" />
        </mxCell>
        <mxCell id="hwvQYhv3dfhFRNOniil5-98" value="Saissi d&#39;ajout ou de modification" style="rounded=0;whiteSpace=wrap;html=1;" parent="1" vertex="1">
          <mxGeometry x="524" y="1450" width="120" height="50" as="geometry" />
        </mxCell>
        <mxCell id="hwvQYhv3dfhFRNOniil5-99" value="" style="rounded=0;whiteSpace=wrap;html=1;" parent="1" vertex="1">
          <mxGeometry x="171.5" y="1380" width="485" height="440" as="geometry" />
        </mxCell>
        <mxCell id="hwvQYhv3dfhFRNOniil5-100" value="" style="rounded=0;whiteSpace=wrap;html=1;" parent="1" vertex="1">
          <mxGeometry x="177.75" y="1450" width="112.5" height="350" as="geometry" />
        </mxCell>
        <mxCell id="hwvQYhv3dfhFRNOniil5-101" value="Page ajout ou modifier Capteur" style="text;html=1;strokeColor=none;fillColor=none;align=center;verticalAlign=middle;whiteSpace=wrap;rounded=0;" parent="1" vertex="1">
          <mxGeometry x="184" y="1380" width="191.25" height="20" as="geometry" />
        </mxCell>
        <mxCell id="hwvQYhv3dfhFRNOniil5-102" value="Nav" style="text;html=1;strokeColor=none;fillColor=none;align=center;verticalAlign=middle;whiteSpace=wrap;rounded=0;" parent="1" vertex="1">
          <mxGeometry x="177.75" y="1450" width="40" height="20" as="geometry" />
        </mxCell>
        <mxCell id="hwvQYhv3dfhFRNOniil5-103" value="Page Utilisateur" style="rounded=0;whiteSpace=wrap;html=1;" parent="1" vertex="1">
          <mxGeometry x="184" y="1470" width="100" height="50" as="geometry" />
        </mxCell>
        <mxCell id="hwvQYhv3dfhFRNOniil5-104" value="page Box" style="rounded=0;whiteSpace=wrap;html=1;" parent="1" vertex="1">
          <mxGeometry x="184" y="1540" width="100" height="50" as="geometry" />
        </mxCell>
        <mxCell id="hwvQYhv3dfhFRNOniil5-105" value="Liste Lieu" style="rounded=0;whiteSpace=wrap;html=1;" parent="1" vertex="1">
          <mxGeometry x="183" y="1670" width="100" height="50" as="geometry" />
        </mxCell>
        <mxCell id="hwvQYhv3dfhFRNOniil5-106" value="CrÃ©ation Box:&amp;nbsp;&lt;br&gt;dans cette page l&#39;admin pourra crÃ©e ou modifier un utilisateur Nom,Ip, @mac, salle, la fonctionnaliter&amp;nbsp; (max temp , max personne , ...), Gestion Box" style="rounded=0;whiteSpace=wrap;html=1;" parent="1" vertex="1">
          <mxGeometry x="304" y="1450" width="330" height="330" as="geometry" />
        </mxCell>
        <mxCell id="hwvQYhv3dfhFRNOniil5-107" value="Logo iut&amp;nbsp;" style="rounded=0;whiteSpace=wrap;html=1;" parent="1" vertex="1">
          <mxGeometry x="177.75" y="1400" width="470" height="40" as="geometry" />
        </mxCell>
        <mxCell id="hwvQYhv3dfhFRNOniil5-108" value="Nom admin" style="text;html=1;strokeColor=none;fillColor=none;align=center;verticalAlign=middle;whiteSpace=wrap;rounded=0;" parent="1" vertex="1">
          <mxGeometry x="594" y="1410" width="40" height="20" as="geometry" />
        </mxCell>
        <mxCell id="hwvQYhv3dfhFRNOniil5-109" value="" style="endArrow=classic;html=1;exitX=0.5;exitY=1;exitDx=0;exitDy=0;entryX=0.474;entryY=0.004;entryDx=0;entryDy=0;entryPerimeter=0;" parent="1" source="hwvQYhv3dfhFRNOniil5-24" target="hwvQYhv3dfhFRNOniil5-99" edge="1">
          <mxGeometry width="50" height="50" relative="1" as="geometry">
            <mxPoint x="176.5" y="455" as="sourcePoint" />
            <mxPoint x="39.76499999999987" y="453.0050000000001" as="targetPoint" />
            <Array as="points" />
          </mxGeometry>
        </mxCell>
        <mxCell id="RcjOclbqkBx9WkXxXYVM-54" value="&lt;span style=&quot;font-size: 12px ; background-color: rgb(248 , 249 , 250)&quot;&gt;click icon nave&lt;/span&gt;" style="edgeLabel;html=1;align=center;verticalAlign=middle;resizable=0;points=[];" parent="hwvQYhv3dfhFRNOniil5-109" vertex="1" connectable="0">
          <mxGeometry x="-0.1511" y="-6" relative="1" as="geometry">
            <mxPoint as="offset" />
          </mxGeometry>
        </mxCell>
        <mxCell id="hwvQYhv3dfhFRNOniil5-112" value="" style="endArrow=classic;html=1;exitX=0;exitY=0.25;exitDx=0;exitDy=0;entryX=0;entryY=0.5;entryDx=0;entryDy=0;" parent="1" source="mvBOg-nYU6NL9uwTwKON-12" target="hwvQYhv3dfhFRNOniil5-99" edge="1">
          <mxGeometry width="50" height="50" relative="1" as="geometry">
            <mxPoint x="178.75" y="475" as="sourcePoint" />
            <mxPoint x="170" y="758.75" as="targetPoint" />
            <Array as="points">
              <mxPoint x="130" y="188" />
              <mxPoint x="130" y="1600" />
            </Array>
          </mxGeometry>
        </mxCell>
        <mxCell id="hwvQYhv3dfhFRNOniil5-114" value="&lt;span style=&quot;font-size: 12px ; background-color: rgb(248 , 249 , 250)&quot;&gt;click icon nave&lt;/span&gt;" style="edgeLabel;html=1;align=center;verticalAlign=middle;resizable=0;points=[];" parent="hwvQYhv3dfhFRNOniil5-112" vertex="1" connectable="0">
          <mxGeometry x="-0.0421" y="1" relative="1" as="geometry">
            <mxPoint as="offset" />
          </mxGeometry>
        </mxCell>
        <mxCell id="RcjOclbqkBx9WkXxXYVM-48" value="&lt;span style=&quot;font-size: 12px ; background-color: rgb(248 , 249 , 250)&quot;&gt;click icon nave&lt;/span&gt;" style="edgeLabel;html=1;align=center;verticalAlign=middle;resizable=0;points=[];" parent="hwvQYhv3dfhFRNOniil5-112" vertex="1" connectable="0">
          <mxGeometry x="-0.7692" y="-5" relative="1" as="geometry">
            <mxPoint as="offset" />
          </mxGeometry>
        </mxCell>
        <mxCell id="hwvQYhv3dfhFRNOniil5-115" value="&lt;span style=&quot;color: rgb(0, 0, 0); font-family: helvetica; font-size: 12px; font-style: normal; font-weight: 400; letter-spacing: normal; text-align: center; text-indent: 0px; text-transform: none; word-spacing: 0px; background-color: rgb(248, 249, 250); display: inline; float: none;&quot;&gt;click icon liste&lt;/span&gt;" style="text;whiteSpace=wrap;html=1;" parent="1" vertex="1">
          <mxGeometry x="349" y="1140" width="100" height="30" as="geometry" />
        </mxCell>
        <mxCell id="hwvQYhv3dfhFRNOniil5-149" style="edgeStyle=orthogonalEdgeStyle;rounded=0;orthogonalLoop=1;jettySize=auto;html=1;entryX=1;entryY=0.268;entryDx=0;entryDy=0;entryPerimeter=0;exitX=0;exitY=0.5;exitDx=0;exitDy=0;" parent="1" source="hwvQYhv3dfhFRNOniil5-119" target="hwvQYhv3dfhFRNOniil5-138" edge="1">
          <mxGeometry relative="1" as="geometry">
            <Array as="points">
              <mxPoint x="225" y="180" />
              <mxPoint x="90" y="180" />
              <mxPoint x="90" y="883" />
            </Array>
          </mxGeometry>
        </mxCell>
        <mxCell id="hwvQYhv3dfhFRNOniil5-150" value="&lt;span style=&quot;font-size: 12px ; background-color: rgb(248 , 249 , 250)&quot;&gt;click icon nave&lt;/span&gt;" style="edgeLabel;html=1;align=center;verticalAlign=middle;resizable=0;points=[];" parent="hwvQYhv3dfhFRNOniil5-149" vertex="1" connectable="0">
          <mxGeometry x="0.8194" relative="1" as="geometry">
            <mxPoint as="offset" />
          </mxGeometry>
        </mxCell>
        <mxCell id="hwvQYhv3dfhFRNOniil5-119" value="Equipements" style="rounded=0;whiteSpace=wrap;html=1;" parent="1" vertex="1">
          <mxGeometry x="225" y="160" width="100" height="50" as="geometry" />
        </mxCell>
        <mxCell id="hwvQYhv3dfhFRNOniil5-120" value="Liste Equipement(10 max)" style="rounded=0;whiteSpace=wrap;html=1;" parent="1" vertex="1">
          <mxGeometry x="355" y="265" width="330" height="50" as="geometry" />
        </mxCell>
        <mxCell id="hwvQYhv3dfhFRNOniil5-121" value="page Equipement" style="rounded=0;whiteSpace=wrap;html=1;" parent="1" vertex="1">
          <mxGeometry x="832.5" y="490" width="100" height="50" as="geometry" />
        </mxCell>
        <mxCell id="hwvQYhv3dfhFRNOniil5-123" value="page Equipement" style="rounded=0;whiteSpace=wrap;html=1;" parent="1" vertex="1">
          <mxGeometry x="170" y="940" width="100" height="50" as="geometry" />
        </mxCell>
        <mxCell id="hwvQYhv3dfhFRNOniil5-124" value="page Equipement" style="rounded=0;whiteSpace=wrap;html=1;" parent="1" vertex="1">
          <mxGeometry x="183" y="1610" width="100" height="50" as="geometry" />
        </mxCell>
        <mxCell id="hwvQYhv3dfhFRNOniil5-127" value="" style="rounded=0;whiteSpace=wrap;html=1;" parent="1" vertex="1">
          <mxGeometry x="-580" y="760" width="485" height="355" as="geometry" />
        </mxCell>
        <mxCell id="hwvQYhv3dfhFRNOniil5-128" value="" style="rounded=0;whiteSpace=wrap;html=1;" parent="1" vertex="1">
          <mxGeometry x="-573.75" y="830" width="112.5" height="240" as="geometry" />
        </mxCell>
        <mxCell id="hwvQYhv3dfhFRNOniil5-129" value="Page Utilisateur" style="text;html=1;strokeColor=none;fillColor=none;align=center;verticalAlign=middle;whiteSpace=wrap;rounded=0;" parent="1" vertex="1">
          <mxGeometry x="-567.5" y="760" width="90" height="20" as="geometry" />
        </mxCell>
        <mxCell id="hwvQYhv3dfhFRNOniil5-130" value="Nav" style="text;html=1;strokeColor=none;fillColor=none;align=center;verticalAlign=middle;whiteSpace=wrap;rounded=0;" parent="1" vertex="1">
          <mxGeometry x="-573.75" y="830" width="40" height="20" as="geometry" />
        </mxCell>
        <mxCell id="hwvQYhv3dfhFRNOniil5-131" value="Page Utilisateur" style="rounded=0;whiteSpace=wrap;html=1;" parent="1" vertex="1">
          <mxGeometry x="-567.5" y="850" width="100" height="50" as="geometry" />
        </mxCell>
        <mxCell id="hwvQYhv3dfhFRNOniil5-132" value="page Capteur" style="rounded=0;whiteSpace=wrap;html=1;" parent="1" vertex="1">
          <mxGeometry x="-567.5" y="920" width="100" height="50" as="geometry" />
        </mxCell>
        <mxCell id="hwvQYhv3dfhFRNOniil5-133" value="Liste Salle" style="rounded=0;whiteSpace=wrap;html=1;" parent="1" vertex="1">
          <mxGeometry x="-567.5" y="1000" width="100" height="50" as="geometry" />
        </mxCell>
        <mxCell id="hwvQYhv3dfhFRNOniil5-134" value="Liste Utilisateur :&amp;nbsp;&lt;br&gt;dans cette page l&#39;admin pourra voir la liste de tout les utilisateur .il pourra cliquer sur une Icon pour faire une modification ou alors pour supprimer le compte. il pourra filtras les utilisateurs par classe si il veut.&amp;nbsp;&amp;nbsp;" style="rounded=0;whiteSpace=wrap;html=1;" parent="1" vertex="1">
          <mxGeometry x="-447.5" y="830" width="200" height="240" as="geometry" />
        </mxCell>
        <mxCell id="hwvQYhv3dfhFRNOniil5-135" value="Logo iut&amp;nbsp;" style="rounded=0;whiteSpace=wrap;html=1;" parent="1" vertex="1">
          <mxGeometry x="-573.75" y="780" width="470" height="40" as="geometry" />
        </mxCell>
        <mxCell id="hwvQYhv3dfhFRNOniil5-136" value="Nom admin" style="text;html=1;strokeColor=none;fillColor=none;align=center;verticalAlign=middle;whiteSpace=wrap;rounded=0;" parent="1" vertex="1">
          <mxGeometry x="-157.5" y="790" width="40" height="20" as="geometry" />
        </mxCell>
        <mxCell id="hwvQYhv3dfhFRNOniil5-137" value="Saissi d&#39;ajout ou de modification" style="rounded=0;whiteSpace=wrap;html=1;" parent="1" vertex="1">
          <mxGeometry x="-227.5" y="830" width="120" height="50" as="geometry" />
        </mxCell>
        <mxCell id="hwvQYhv3dfhFRNOniil5-138" value="" style="rounded=0;whiteSpace=wrap;html=1;" parent="1" vertex="1">
          <mxGeometry x="-580" y="760" width="485" height="460" as="geometry" />
        </mxCell>
        <mxCell id="hwvQYhv3dfhFRNOniil5-139" value="" style="rounded=0;whiteSpace=wrap;html=1;" parent="1" vertex="1">
          <mxGeometry x="-573.75" y="830" width="112.5" height="370" as="geometry" />
        </mxCell>
        <mxCell id="hwvQYhv3dfhFRNOniil5-140" value="Page List Equipement" style="text;html=1;strokeColor=none;fillColor=none;align=center;verticalAlign=middle;whiteSpace=wrap;rounded=0;" parent="1" vertex="1">
          <mxGeometry x="-567.5" y="760" width="147.5" height="20" as="geometry" />
        </mxCell>
        <mxCell id="hwvQYhv3dfhFRNOniil5-141" value="Nav" style="text;html=1;strokeColor=none;fillColor=none;align=center;verticalAlign=middle;whiteSpace=wrap;rounded=0;" parent="1" vertex="1">
          <mxGeometry x="-573.75" y="830" width="40" height="20" as="geometry" />
        </mxCell>
        <mxCell id="hwvQYhv3dfhFRNOniil5-142" value="Page Utilisateur" style="rounded=0;whiteSpace=wrap;html=1;" parent="1" vertex="1">
          <mxGeometry x="-567.5" y="850" width="100" height="50" as="geometry" />
        </mxCell>
        <mxCell id="hwvQYhv3dfhFRNOniil5-143" value="page Box" style="rounded=0;whiteSpace=wrap;html=1;" parent="1" vertex="1">
          <mxGeometry x="-567.5" y="920" width="100" height="50" as="geometry" />
        </mxCell>
        <mxCell id="hwvQYhv3dfhFRNOniil5-144" value="Liste lieu" style="rounded=0;whiteSpace=wrap;html=1;" parent="1" vertex="1">
          <mxGeometry x="-567.5" y="1055" width="100" height="50" as="geometry" />
        </mxCell>
        <mxCell id="hwvQYhv3dfhFRNOniil5-145" value="Liste Equipement:&amp;nbsp;&lt;br&gt;dans cette page l&#39;admin pourra voir la liste de tout les Equipement&amp;nbsp;.il pourra cliquer sur une Icon pour faire une modification ou alors pour supprimer le compte. il pourra filtras les utilisateurs par type si il veut.&amp;nbsp;&amp;nbsp;&lt;br&gt;&lt;br&gt;visualiser :&lt;br&gt;type , salle , Battiment ,Ã©tat(oui ou non)" style="rounded=0;whiteSpace=wrap;html=1;" parent="1" vertex="1">
          <mxGeometry x="-447.5" y="830" width="207.5" height="310" as="geometry" />
        </mxCell>
        <mxCell id="hwvQYhv3dfhFRNOniil5-146" value="Logo iut&amp;nbsp;" style="rounded=0;whiteSpace=wrap;html=1;" parent="1" vertex="1">
          <mxGeometry x="-573.75" y="780" width="470" height="40" as="geometry" />
        </mxCell>
        <mxCell id="hwvQYhv3dfhFRNOniil5-147" value="Nom admin" style="text;html=1;strokeColor=none;fillColor=none;align=center;verticalAlign=middle;whiteSpace=wrap;rounded=0;" parent="1" vertex="1">
          <mxGeometry x="-157.5" y="790" width="40" height="20" as="geometry" />
        </mxCell>
        <mxCell id="hwvQYhv3dfhFRNOniil5-148" value="page Equipement" style="rounded=0;whiteSpace=wrap;html=1;" parent="1" vertex="1">
          <mxGeometry x="-567.5" y="985" width="100" height="50" as="geometry" />
        </mxCell>
        <mxCell id="hwvQYhv3dfhFRNOniil5-173" value="Saissi d&#39;ajout ou de modification" style="rounded=0;whiteSpace=wrap;html=1;" parent="1" vertex="1">
          <mxGeometry x="-231.25" y="830" width="127.5" height="160" as="geometry" />
        </mxCell>
        <mxCell id="hwvQYhv3dfhFRNOniil5-174" value="" style="rounded=0;whiteSpace=wrap;html=1;" parent="1" vertex="1">
          <mxGeometry x="850" y="800" width="485" height="355" as="geometry" />
        </mxCell>
        <mxCell id="hwvQYhv3dfhFRNOniil5-175" value="" style="rounded=0;whiteSpace=wrap;html=1;" parent="1" vertex="1">
          <mxGeometry x="856.25" y="870" width="112.5" height="240" as="geometry" />
        </mxCell>
        <mxCell id="hwvQYhv3dfhFRNOniil5-176" value="Page Utilisateur" style="text;html=1;strokeColor=none;fillColor=none;align=center;verticalAlign=middle;whiteSpace=wrap;rounded=0;" parent="1" vertex="1">
          <mxGeometry x="862.5" y="800" width="90" height="20" as="geometry" />
        </mxCell>
        <mxCell id="hwvQYhv3dfhFRNOniil5-177" value="Nav" style="text;html=1;strokeColor=none;fillColor=none;align=center;verticalAlign=middle;whiteSpace=wrap;rounded=0;" parent="1" vertex="1">
          <mxGeometry x="856.25" y="870" width="40" height="20" as="geometry" />
        </mxCell>
        <mxCell id="hwvQYhv3dfhFRNOniil5-178" value="Page Utilisateur" style="rounded=0;whiteSpace=wrap;html=1;" parent="1" vertex="1">
          <mxGeometry x="862.5" y="890" width="100" height="50" as="geometry" />
        </mxCell>
        <mxCell id="hwvQYhv3dfhFRNOniil5-179" value="page Capteur" style="rounded=0;whiteSpace=wrap;html=1;" parent="1" vertex="1">
          <mxGeometry x="862.5" y="960" width="100" height="50" as="geometry" />
        </mxCell>
        <mxCell id="hwvQYhv3dfhFRNOniil5-180" value="Liste Salle" style="rounded=0;whiteSpace=wrap;html=1;" parent="1" vertex="1">
          <mxGeometry x="862.5" y="1040" width="100" height="50" as="geometry" />
        </mxCell>
        <mxCell id="hwvQYhv3dfhFRNOniil5-181" value="Liste Utilisateur :&amp;nbsp;&lt;br&gt;dans cette page l&#39;admin pourra voir la liste de tout les utilisateur .il pourra cliquer sur une Icon pour faire une modification ou alors pour supprimer le compte. il pourra filtras les utilisateurs par classe si il veut.&amp;nbsp;&amp;nbsp;" style="rounded=0;whiteSpace=wrap;html=1;" parent="1" vertex="1">
          <mxGeometry x="982.5" y="870" width="200" height="240" as="geometry" />
        </mxCell>
        <mxCell id="hwvQYhv3dfhFRNOniil5-182" value="Logo iut&amp;nbsp;" style="rounded=0;whiteSpace=wrap;html=1;" parent="1" vertex="1">
          <mxGeometry x="856.25" y="820" width="470" height="40" as="geometry" />
        </mxCell>
        <mxCell id="hwvQYhv3dfhFRNOniil5-183" value="Nom admin" style="text;html=1;strokeColor=none;fillColor=none;align=center;verticalAlign=middle;whiteSpace=wrap;rounded=0;" parent="1" vertex="1">
          <mxGeometry x="1272.5" y="830" width="40" height="20" as="geometry" />
        </mxCell>
        <mxCell id="hwvQYhv3dfhFRNOniil5-184" value="Saissi d&#39;ajout ou de modification" style="rounded=0;whiteSpace=wrap;html=1;" parent="1" vertex="1">
          <mxGeometry x="1202.5" y="870" width="120" height="50" as="geometry" />
        </mxCell>
        <mxCell id="hwvQYhv3dfhFRNOniil5-185" value="" style="rounded=0;whiteSpace=wrap;html=1;" parent="1" vertex="1">
          <mxGeometry x="850" y="800" width="485" height="470" as="geometry" />
        </mxCell>
        <mxCell id="hwvQYhv3dfhFRNOniil5-186" value="" style="rounded=0;whiteSpace=wrap;html=1;" parent="1" vertex="1">
          <mxGeometry x="856.25" y="870" width="112.5" height="390" as="geometry" />
        </mxCell>
        <mxCell id="hwvQYhv3dfhFRNOniil5-187" value="Page Batiment" style="text;html=1;strokeColor=none;fillColor=none;align=center;verticalAlign=middle;whiteSpace=wrap;rounded=0;" parent="1" vertex="1">
          <mxGeometry x="862.5" y="800" width="90" height="20" as="geometry" />
        </mxCell>
        <mxCell id="hwvQYhv3dfhFRNOniil5-188" value="Nav" style="text;html=1;strokeColor=none;fillColor=none;align=center;verticalAlign=middle;whiteSpace=wrap;rounded=0;" parent="1" vertex="1">
          <mxGeometry x="856.25" y="870" width="40" height="20" as="geometry" />
        </mxCell>
        <mxCell id="hwvQYhv3dfhFRNOniil5-189" value="Page Utilisateur" style="rounded=0;whiteSpace=wrap;html=1;" parent="1" vertex="1">
          <mxGeometry x="862.5" y="890" width="100" height="50" as="geometry" />
        </mxCell>
        <mxCell id="hwvQYhv3dfhFRNOniil5-190" value="page Box" style="rounded=0;whiteSpace=wrap;html=1;" parent="1" vertex="1">
          <mxGeometry x="862.5" y="960" width="100" height="50" as="geometry" />
        </mxCell>
        <mxCell id="hwvQYhv3dfhFRNOniil5-191" value="Liste lieu" style="rounded=0;whiteSpace=wrap;html=1;" parent="1" vertex="1">
          <mxGeometry x="862.5" y="1135" width="100" height="50" as="geometry" />
        </mxCell>
        <mxCell id="hwvQYhv3dfhFRNOniil5-192" value="Liste Batiment:&amp;nbsp;&lt;br&gt;dans cette page l&#39;admin pourra voir la liste de tout les Batiments.il pourra cliquer sur une Icon pour faire une modification ou alors pour supprimer les salle.&amp;nbsp;&amp;nbsp;&lt;br&gt;&lt;br&gt;&lt;br&gt;visualiser :&lt;br&gt;Batiment , NÂ°batiment ,Class , Accessible, %prÃ©sence , MÂ², site&lt;br&gt;&amp;nbsp;" style="rounded=0;whiteSpace=wrap;html=1;" parent="1" vertex="1">
          <mxGeometry x="982.5" y="870" width="200" height="335" as="geometry" />
        </mxCell>
        <mxCell id="hwvQYhv3dfhFRNOniil5-193" value="Logo iut&amp;nbsp;" style="rounded=0;whiteSpace=wrap;html=1;" parent="1" vertex="1">
          <mxGeometry x="856.25" y="820" width="470" height="40" as="geometry" />
        </mxCell>
        <mxCell id="hwvQYhv3dfhFRNOniil5-194" value="Nom admin" style="text;html=1;strokeColor=none;fillColor=none;align=center;verticalAlign=middle;whiteSpace=wrap;rounded=0;" parent="1" vertex="1">
          <mxGeometry x="1272.5" y="830" width="40" height="20" as="geometry" />
        </mxCell>
        <mxCell id="hwvQYhv3dfhFRNOniil5-195" value="Saisie d&#39;ajout ou de modification" style="rounded=0;whiteSpace=wrap;html=1;" parent="1" vertex="1">
          <mxGeometry x="1202.5" y="870" width="120" height="120" as="geometry" />
        </mxCell>
        <mxCell id="hwvQYhv3dfhFRNOniil5-196" value="page Equipement" style="rounded=0;whiteSpace=wrap;html=1;" parent="1" vertex="1">
          <mxGeometry x="862.5" y="1045" width="100" height="50" as="geometry" />
        </mxCell>
        <mxCell id="RcjOclbqkBx9WkXxXYVM-1" value="Accuiel" style="rounded=0;whiteSpace=wrap;html=1;" parent="1" vertex="1">
          <mxGeometry x="-568.75" y="1127.5" width="100" height="55" as="geometry" />
        </mxCell>
        <mxCell id="RcjOclbqkBx9WkXxXYVM-6" value="liste et saisie de site&amp;nbsp;" style="rounded=0;whiteSpace=wrap;html=1;" parent="1" vertex="1">
          <mxGeometry x="1202.5" y="1005" width="120" height="120" as="geometry" />
        </mxCell>
        <mxCell id="RcjOclbqkBx9WkXxXYVM-8" value="" style="rounded=0;whiteSpace=wrap;html=1;" parent="1" vertex="1">
          <mxGeometry x="825.75" y="-317.5" width="485" height="355" as="geometry" />
        </mxCell>
        <mxCell id="RcjOclbqkBx9WkXxXYVM-9" value="" style="rounded=0;whiteSpace=wrap;html=1;" parent="1" vertex="1">
          <mxGeometry x="832" y="-247.5" width="112.5" height="240" as="geometry" />
        </mxCell>
        <mxCell id="RcjOclbqkBx9WkXxXYVM-10" value="Page Utilisateur" style="text;html=1;strokeColor=none;fillColor=none;align=center;verticalAlign=middle;whiteSpace=wrap;rounded=0;" parent="1" vertex="1">
          <mxGeometry x="838.25" y="-317.5" width="90" height="20" as="geometry" />
        </mxCell>
        <mxCell id="RcjOclbqkBx9WkXxXYVM-11" value="Nav" style="text;html=1;strokeColor=none;fillColor=none;align=center;verticalAlign=middle;whiteSpace=wrap;rounded=0;" parent="1" vertex="1">
          <mxGeometry x="832" y="-247.5" width="40" height="20" as="geometry" />
        </mxCell>
        <mxCell id="RcjOclbqkBx9WkXxXYVM-12" value="Page Utilisateur" style="rounded=0;whiteSpace=wrap;html=1;" parent="1" vertex="1">
          <mxGeometry x="838.25" y="-227.5" width="100" height="50" as="geometry" />
        </mxCell>
        <mxCell id="RcjOclbqkBx9WkXxXYVM-13" value="page Capteur" style="rounded=0;whiteSpace=wrap;html=1;" parent="1" vertex="1">
          <mxGeometry x="838.25" y="-157.5" width="100" height="50" as="geometry" />
        </mxCell>
        <mxCell id="RcjOclbqkBx9WkXxXYVM-14" value="Liste Salle" style="rounded=0;whiteSpace=wrap;html=1;" parent="1" vertex="1">
          <mxGeometry x="838.25" y="-77.5" width="100" height="50" as="geometry" />
        </mxCell>
        <mxCell id="RcjOclbqkBx9WkXxXYVM-15" value="Liste Utilisateur :&amp;nbsp;&lt;br&gt;dans cette page l&#39;admin pourra voir la liste de tout les utilisateur .il pourra cliquer sur une Icon pour faire une modification ou alors pour supprimer le compte. il pourra filtras les utilisateurs par classe si il veut.&amp;nbsp;&amp;nbsp;" style="rounded=0;whiteSpace=wrap;html=1;" parent="1" vertex="1">
          <mxGeometry x="958.25" y="-247.5" width="200" height="240" as="geometry" />
        </mxCell>
        <mxCell id="RcjOclbqkBx9WkXxXYVM-16" value="Logo iut&amp;nbsp;" style="rounded=0;whiteSpace=wrap;html=1;" parent="1" vertex="1">
          <mxGeometry x="832" y="-297.5" width="470" height="40" as="geometry" />
        </mxCell>
        <mxCell id="RcjOclbqkBx9WkXxXYVM-17" value="Nom admin" style="text;html=1;strokeColor=none;fillColor=none;align=center;verticalAlign=middle;whiteSpace=wrap;rounded=0;" parent="1" vertex="1">
          <mxGeometry x="1248.25" y="-287.5" width="40" height="20" as="geometry" />
        </mxCell>
        <mxCell id="RcjOclbqkBx9WkXxXYVM-18" value="Saissi d&#39;ajout ou de modification" style="rounded=0;whiteSpace=wrap;html=1;" parent="1" vertex="1">
          <mxGeometry x="1178.25" y="-247.5" width="120" height="50" as="geometry" />
        </mxCell>
        <mxCell id="RcjOclbqkBx9WkXxXYVM-19" value="" style="rounded=0;whiteSpace=wrap;html=1;" parent="1" vertex="1">
          <mxGeometry x="825.75" y="-317.5" width="485" height="435" as="geometry" />
        </mxCell>
        <mxCell id="RcjOclbqkBx9WkXxXYVM-20" value="" style="rounded=0;whiteSpace=wrap;html=1;" parent="1" vertex="1">
          <mxGeometry x="832" y="-247.5" width="112.5" height="347.5" as="geometry" />
        </mxCell>
        <mxCell id="RcjOclbqkBx9WkXxXYVM-21" value="Page promotion" style="text;html=1;strokeColor=none;fillColor=none;align=center;verticalAlign=middle;whiteSpace=wrap;rounded=0;" parent="1" vertex="1">
          <mxGeometry x="838.25" y="-317.5" width="90" height="20" as="geometry" />
        </mxCell>
        <mxCell id="RcjOclbqkBx9WkXxXYVM-22" value="Nav" style="text;html=1;strokeColor=none;fillColor=none;align=center;verticalAlign=middle;whiteSpace=wrap;rounded=0;" parent="1" vertex="1">
          <mxGeometry x="832" y="-247.5" width="40" height="20" as="geometry" />
        </mxCell>
        <mxCell id="RcjOclbqkBx9WkXxXYVM-23" value="Page Utilisateur" style="rounded=0;whiteSpace=wrap;html=1;" parent="1" vertex="1">
          <mxGeometry x="838.25" y="-227.5" width="100" height="50" as="geometry" />
        </mxCell>
        <mxCell id="RcjOclbqkBx9WkXxXYVM-24" value="page Box" style="rounded=0;whiteSpace=wrap;html=1;" parent="1" vertex="1">
          <mxGeometry x="838.25" y="-157.5" width="100" height="50" as="geometry" />
        </mxCell>
        <mxCell id="RcjOclbqkBx9WkXxXYVM-25" value="Liste lieu" style="rounded=0;whiteSpace=wrap;html=1;" parent="1" vertex="1">
          <mxGeometry x="838.75" y="-30" width="100" height="50" as="geometry" />
        </mxCell>
        <mxCell id="RcjOclbqkBx9WkXxXYVM-26" value="Liste Promotion:&amp;nbsp;&lt;br&gt;dans cette page l&#39;admin pourra voir la liste de tout les Batiments.il pourra cliquer sur une Icon pour faire une modification ou alors pour supprimer les salle.&amp;nbsp;&amp;nbsp;&lt;br&gt;&lt;br&gt;&lt;br&gt;visualiser :&lt;br&gt;Batiment , NÂ°salle, Class , Accessible, %prÃ©sence&amp;nbsp;" style="rounded=0;whiteSpace=wrap;html=1;" parent="1" vertex="1">
          <mxGeometry x="958.25" y="-247.5" width="200" height="335" as="geometry" />
        </mxCell>
        <mxCell id="RcjOclbqkBx9WkXxXYVM-27" value="Logo iut&amp;nbsp;" style="rounded=0;whiteSpace=wrap;html=1;" parent="1" vertex="1">
          <mxGeometry x="832" y="-297.5" width="470" height="40" as="geometry" />
        </mxCell>
        <mxCell id="RcjOclbqkBx9WkXxXYVM-28" value="Nom admin" style="text;html=1;strokeColor=none;fillColor=none;align=center;verticalAlign=middle;whiteSpace=wrap;rounded=0;" parent="1" vertex="1">
          <mxGeometry x="1248.25" y="-287.5" width="40" height="20" as="geometry" />
        </mxCell>
        <mxCell id="RcjOclbqkBx9WkXxXYVM-29" value="Saissi d&#39;ajout ou de modification" style="rounded=0;whiteSpace=wrap;html=1;" parent="1" vertex="1">
          <mxGeometry x="1178.25" y="-247.5" width="120" height="120" as="geometry" />
        </mxCell>
        <mxCell id="RcjOclbqkBx9WkXxXYVM-30" value="page Equipement" style="rounded=0;whiteSpace=wrap;html=1;" parent="1" vertex="1">
          <mxGeometry x="838.25" y="-90" width="100" height="50" as="geometry" />
        </mxCell>
        <mxCell id="RcjOclbqkBx9WkXxXYVM-31" value="liste et saisi de site&amp;nbsp;" style="rounded=0;whiteSpace=wrap;html=1;" parent="1" vertex="1">
          <mxGeometry x="1178.25" y="-112.5" width="120" height="120" as="geometry" />
        </mxCell>
        <mxCell id="RcjOclbqkBx9WkXxXYVM-34" value="" style="endArrow=classic;html=1;entryX=0;entryY=0.5;entryDx=0;entryDy=0;exitX=0;exitY=0;exitDx=0;exitDy=0;" parent="1" source="mvBOg-nYU6NL9uwTwKON-11" target="RcjOclbqkBx9WkXxXYVM-19" edge="1">
          <mxGeometry width="50" height="50" relative="1" as="geometry">
            <mxPoint x="60" y="530" as="sourcePoint" />
            <mxPoint x="1650" y="-177.5" as="targetPoint" />
            <Array as="points">
              <mxPoint x="120" y="45" />
              <mxPoint x="120" y="-100" />
            </Array>
          </mxGeometry>
        </mxCell>
        <mxCell id="RcjOclbqkBx9WkXxXYVM-36" value="&lt;span style=&quot;font-size: 12px ; background-color: rgb(248 , 249 , 250)&quot;&gt;click icon nave&lt;/span&gt;" style="edgeLabel;html=1;align=center;verticalAlign=middle;resizable=0;points=[];" parent="RcjOclbqkBx9WkXxXYVM-34" vertex="1" connectable="0">
          <mxGeometry x="0.2166" relative="1" as="geometry">
            <mxPoint as="offset" />
          </mxGeometry>
        </mxCell>
        <mxCell id="RcjOclbqkBx9WkXxXYVM-37" value="Accuiel" style="rounded=0;whiteSpace=wrap;html=1;" parent="1" vertex="1">
          <mxGeometry x="184" y="1740" width="100" height="55" as="geometry" />
        </mxCell>
        <mxCell id="RcjOclbqkBx9WkXxXYVM-38" value="Accueil" style="rounded=0;whiteSpace=wrap;html=1;" parent="1" vertex="1">
          <mxGeometry x="167.75" y="1075" width="100" height="55" as="geometry" />
        </mxCell>
        <mxCell id="RcjOclbqkBx9WkXxXYVM-39" value="Accuiel" style="rounded=0;whiteSpace=wrap;html=1;" parent="1" vertex="1">
          <mxGeometry x="862.5" y="1200" width="100" height="55" as="geometry" />
        </mxCell>
        <mxCell id="RcjOclbqkBx9WkXxXYVM-40" value="Accuiel" style="rounded=0;whiteSpace=wrap;html=1;" parent="1" vertex="1">
          <mxGeometry x="833.25" y="640" width="100" height="55" as="geometry" />
        </mxCell>
        <mxCell id="RcjOclbqkBx9WkXxXYVM-41" value="Tableau bord" style="rounded=0;whiteSpace=wrap;html=1;" parent="1" vertex="1">
          <mxGeometry x="225" y="362.5" width="100" height="55" as="geometry" />
        </mxCell>
        <mxCell id="RcjOclbqkBx9WkXxXYVM-45" value="Accuiel" style="rounded=0;whiteSpace=wrap;html=1;" parent="1" vertex="1">
          <mxGeometry x="838.25" y="32.5" width="100" height="55" as="geometry" />
        </mxCell>
        <mxCell id="mvBOg-nYU6NL9uwTwKON-12" value="IOT Devices" style="rounded=0;whiteSpace=wrap;html=1;" parent="1" vertex="1">
          <mxGeometry x="223.75" y="220" width="100" height="50" as="geometry" />
        </mxCell>
        <mxCell id="RcjOclbqkBx9WkXxXYVM-51" value="Liste Batiment&amp;nbsp;&lt;br&gt;(10 max)" style="rounded=0;whiteSpace=wrap;html=1;" parent="1" vertex="1">
          <mxGeometry x="354" y="330" width="170" height="120" as="geometry" />
        </mxCell>
        <mxCell id="RcjOclbqkBx9WkXxXYVM-53" value="Liste Utilisateur&lt;br&gt;(10 max)" style="rounded=0;whiteSpace=wrap;html=1;" parent="1" vertex="1">
          <mxGeometry x="535" y="330" width="155" height="120" as="geometry" />
        </mxCell>
        <mxCell id="vrpec3YslxEc7_vkl1N--1" value="Admin" style="shape=umlActor;verticalLabelPosition=bottom;verticalAlign=top;html=1;outlineConnect=0;" vertex="1" parent="1">
          <mxGeometry x="386.5" y="-1830" width="30" height="60" as="geometry" />
        </mxCell>
        <mxCell id="vrpec3YslxEc7_vkl1N--2" value="" style="endArrow=classic;html=1;exitX=0.5;exitY=0.5;exitDx=0;exitDy=0;exitPerimeter=0;entryX=0.5;entryY=0;entryDx=0;entryDy=0;" edge="1" parent="1" source="vrpec3YslxEc7_vkl1N--1" target="vrpec3YslxEc7_vkl1N--3">
          <mxGeometry width="50" height="50" relative="1" as="geometry">
            <mxPoint x="396.5" y="-1420" as="sourcePoint" />
            <mxPoint x="401.5" y="-1690" as="targetPoint" />
          </mxGeometry>
        </mxCell>
        <mxCell id="vrpec3YslxEc7_vkl1N--3" value="" style="rounded=0;whiteSpace=wrap;html=1;" vertex="1" parent="1">
          <mxGeometry x="341.5" y="-1690" width="120" height="60" as="geometry" />
        </mxCell>
        <mxCell id="vrpec3YslxEc7_vkl1N--4" value="Page de connexion&amp;nbsp;" style="text;html=1;strokeColor=none;fillColor=none;align=center;verticalAlign=middle;whiteSpace=wrap;rounded=0;" vertex="1" parent="1">
          <mxGeometry x="341.5" y="-1690" width="125" height="60" as="geometry" />
        </mxCell>
        <mxCell id="vrpec3YslxEc7_vkl1N--5" value="Login" style="text;html=1;strokeColor=none;fillColor=none;align=center;verticalAlign=middle;whiteSpace=wrap;rounded=0;" vertex="1" parent="1">
          <mxGeometry x="400.5" y="-1730" width="40" height="20" as="geometry" />
        </mxCell>
        <mxCell id="vrpec3YslxEc7_vkl1N--6" value="" style="rounded=0;whiteSpace=wrap;html=1;" vertex="1" parent="1">
          <mxGeometry x="161.5" y="-1505" width="485" height="595" as="geometry" />
        </mxCell>
        <mxCell id="vrpec3YslxEc7_vkl1N--7" value="" style="endArrow=classic;html=1;exitX=0.5;exitY=1;exitDx=0;exitDy=0;entryX=0.5;entryY=0;entryDx=0;entryDy=0;" edge="1" parent="1" source="vrpec3YslxEc7_vkl1N--4" target="vrpec3YslxEc7_vkl1N--6">
          <mxGeometry width="50" height="50" relative="1" as="geometry">
            <mxPoint x="341.5" y="-1010" as="sourcePoint" />
            <mxPoint x="391.5" y="-1060" as="targetPoint" />
          </mxGeometry>
        </mxCell>
        <mxCell id="vrpec3YslxEc7_vkl1N--8" value="" style="rounded=0;whiteSpace=wrap;html=1;" vertex="1" parent="1">
          <mxGeometry x="170" y="-1420" width="112.5" height="505" as="geometry" />
        </mxCell>
        <mxCell id="vrpec3YslxEc7_vkl1N--9" value="Page Tableau bord" style="text;html=1;strokeColor=none;fillColor=none;align=center;verticalAlign=middle;whiteSpace=wrap;rounded=0;" vertex="1" parent="1">
          <mxGeometry x="186.5" y="-1505" width="125" height="20" as="geometry" />
        </mxCell>
        <mxCell id="vrpec3YslxEc7_vkl1N--10" value="Nav" style="text;html=1;strokeColor=none;fillColor=none;align=center;verticalAlign=middle;whiteSpace=wrap;rounded=0;" vertex="1" parent="1">
          <mxGeometry x="175.25" y="-1415" width="40" height="20" as="geometry" />
        </mxCell>
        <mxCell id="vrpec3YslxEc7_vkl1N--11" value="Utilisateurs&amp;nbsp;&lt;br&gt;&lt;br&gt;&lt;br&gt;&lt;br&gt;&lt;br&gt;" style="rounded=0;whiteSpace=wrap;html=1;" vertex="1" parent="1">
          <mxGeometry x="175.25" y="-1395" width="100" height="105" as="geometry" />
        </mxCell>
        <mxCell id="vrpec3YslxEc7_vkl1N--13" value="Log alerte :&lt;br&gt;&amp;nbsp;- Cas Covid-19&lt;br&gt;- dÃ©passe Co2" style="rounded=0;whiteSpace=wrap;html=1;" vertex="1" parent="1">
          <mxGeometry x="304" y="-1425" width="186" height="245" as="geometry" />
        </mxCell>
        <mxCell id="vrpec3YslxEc7_vkl1N--14" value="Log Etat plateforme&lt;br&gt;- alertes Capteur" style="rounded=0;whiteSpace=wrap;html=1;" vertex="1" parent="1">
          <mxGeometry x="506.5" y="-1425" width="130" height="485" as="geometry" />
        </mxCell>
        <mxCell id="vrpec3YslxEc7_vkl1N--15" value="Affichage Capteur&amp;nbsp;" style="rounded=0;whiteSpace=wrap;html=1;" vertex="1" parent="1">
          <mxGeometry x="301.88" y="-1160" width="190.25" height="220" as="geometry" />
        </mxCell>
        <mxCell id="vrpec3YslxEc7_vkl1N--16" value="Logo iut&amp;nbsp;" style="rounded=0;whiteSpace=wrap;html=1;" vertex="1" parent="1">
          <mxGeometry x="166.5" y="-1475" width="470" height="40" as="geometry" />
        </mxCell>
        <mxCell id="vrpec3YslxEc7_vkl1N--17" value="Nom admin" style="text;html=1;strokeColor=none;fillColor=none;align=center;verticalAlign=middle;whiteSpace=wrap;rounded=0;" vertex="1" parent="1">
          <mxGeometry x="586.5" y="-1465" width="40" height="20" as="geometry" />
        </mxCell>
        <mxCell id="vrpec3YslxEc7_vkl1N--20" value="&lt;span style=&quot;font-size: 12px ; background-color: rgb(248 , 249 , 250)&quot;&gt;click icon nave&lt;/span&gt;" style="edgeLabel;html=1;align=center;verticalAlign=middle;resizable=0;points=[];" vertex="1" connectable="0" parent="1">
          <mxGeometry x="402.75" y="-1540" as="geometry" />
        </mxCell>
        <mxCell id="vrpec3YslxEc7_vkl1N--25" value="-CrÃ©e/modifie&lt;br&gt;- List utilisateurs" style="rounded=0;whiteSpace=wrap;html=1;" vertex="1" parent="1">
          <mxGeometry x="179" y="-1360" width="90" height="60" as="geometry" />
        </mxCell>
        <mxCell id="vrpec3YslxEc7_vkl1N--28" value="Promotion&lt;br&gt;&amp;nbsp;&lt;br&gt;&lt;br&gt;&lt;br&gt;&lt;br&gt;" style="rounded=0;whiteSpace=wrap;html=1;" vertex="1" parent="1">
          <mxGeometry x="176.5" y="-1280" width="100" height="105" as="geometry" />
        </mxCell>
        <mxCell id="vrpec3YslxEc7_vkl1N--29" value="-CrÃ©e/modifie&lt;br&gt;- List Promotion" style="rounded=0;whiteSpace=wrap;html=1;" vertex="1" parent="1">
          <mxGeometry x="180" y="-1245" width="90" height="60" as="geometry" />
        </mxCell>
        <mxCell id="vrpec3YslxEc7_vkl1N--30" value="Campus&lt;br&gt;&lt;br&gt;&lt;br&gt;&lt;br&gt;&lt;br&gt;" style="rounded=0;whiteSpace=wrap;html=1;" vertex="1" parent="1">
          <mxGeometry x="174" y="-1160" width="100" height="105" as="geometry" />
        </mxCell>
        <mxCell id="vrpec3YslxEc7_vkl1N--31" value="IOT Devis&lt;br&gt;&lt;br&gt;&lt;br&gt;&lt;br&gt;" style="rounded=0;whiteSpace=wrap;html=1;" vertex="1" parent="1">
          <mxGeometry x="174" y="-1040" width="100" height="105" as="geometry" />
        </mxCell>
        <mxCell id="vrpec3YslxEc7_vkl1N--33" value="-CrÃ©e/modifie&lt;br&gt;- List campus" style="rounded=0;whiteSpace=wrap;html=1;" vertex="1" parent="1">
          <mxGeometry x="180" y="-1125" width="90" height="60" as="geometry" />
        </mxCell>
        <mxCell id="vrpec3YslxEc7_vkl1N--34" value="-CrÃ©e/modifie&lt;br&gt;- List utilisate" style="rounded=0;whiteSpace=wrap;html=1;" vertex="1" parent="1">
          <mxGeometry x="186" y="-1000" width="76" height="60" as="geometry" />
        </mxCell>
        <mxCell id="vrpec3YslxEc7_vkl1N--37" value="" style="rounded=0;whiteSpace=wrap;html=1;" vertex="1" parent="1">
          <mxGeometry x="-1060" y="-2180" width="112.5" height="240" as="geometry" />
        </mxCell>
        <mxCell id="vrpec3YslxEc7_vkl1N--38" value="Page Utilisateur" style="text;html=1;strokeColor=none;fillColor=none;align=center;verticalAlign=middle;whiteSpace=wrap;rounded=0;" vertex="1" parent="1">
          <mxGeometry x="-1053.75" y="-2250" width="90" height="20" as="geometry" />
        </mxCell>
        <mxCell id="vrpec3YslxEc7_vkl1N--39" value="Nav" style="text;html=1;strokeColor=none;fillColor=none;align=center;verticalAlign=middle;whiteSpace=wrap;rounded=0;" vertex="1" parent="1">
          <mxGeometry x="-1060" y="-2180" width="40" height="20" as="geometry" />
        </mxCell>
        <mxCell id="vrpec3YslxEc7_vkl1N--40" value="Page Utilisateur" style="rounded=0;whiteSpace=wrap;html=1;" vertex="1" parent="1">
          <mxGeometry x="-1053.75" y="-2160" width="100" height="50" as="geometry" />
        </mxCell>
        <mxCell id="vrpec3YslxEc7_vkl1N--41" value="page Capteur" style="rounded=0;whiteSpace=wrap;html=1;" vertex="1" parent="1">
          <mxGeometry x="-1053.75" y="-2090" width="100" height="50" as="geometry" />
        </mxCell>
        <mxCell id="vrpec3YslxEc7_vkl1N--42" value="Liste Salle" style="rounded=0;whiteSpace=wrap;html=1;" vertex="1" parent="1">
          <mxGeometry x="-1053.75" y="-2010" width="100" height="50" as="geometry" />
        </mxCell>
        <mxCell id="vrpec3YslxEc7_vkl1N--43" value="Liste Utilisateur :&amp;nbsp;&lt;br&gt;dans cette page l&#39;admin pourra voir la liste de tout les utilisateur .il pourra cliquer sur une Icon pour faire une modification ou alors pour supprimer le compte. il pourra filtras les utilisateurs par classe si il veut.&amp;nbsp;&amp;nbsp;" style="rounded=0;whiteSpace=wrap;html=1;" vertex="1" parent="1">
          <mxGeometry x="-933.75" y="-2180" width="200" height="240" as="geometry" />
        </mxCell>
        <mxCell id="vrpec3YslxEc7_vkl1N--44" value="Logo iut&amp;nbsp;" style="rounded=0;whiteSpace=wrap;html=1;" vertex="1" parent="1">
          <mxGeometry x="-1060" y="-2230" width="470" height="40" as="geometry" />
        </mxCell>
        <mxCell id="vrpec3YslxEc7_vkl1N--45" value="Nom admin" style="text;html=1;strokeColor=none;fillColor=none;align=center;verticalAlign=middle;whiteSpace=wrap;rounded=0;" vertex="1" parent="1">
          <mxGeometry x="-643.75" y="-2220" width="40" height="20" as="geometry" />
        </mxCell>
        <mxCell id="vrpec3YslxEc7_vkl1N--46" value="Saissi d&#39;ajout ou de modification" style="rounded=0;whiteSpace=wrap;html=1;" vertex="1" parent="1">
          <mxGeometry x="-713.75" y="-2180" width="120" height="50" as="geometry" />
        </mxCell>
        <mxCell id="vrpec3YslxEc7_vkl1N--47" value="" style="rounded=0;whiteSpace=wrap;html=1;" vertex="1" parent="1">
          <mxGeometry x="-1076.25" y="-2250" width="507.5" height="615" as="geometry" />
        </mxCell>
        <mxCell id="vrpec3YslxEc7_vkl1N--49" value="Page ajout ou modifier Utilisateur" style="text;html=1;strokeColor=none;fillColor=none;align=center;verticalAlign=middle;whiteSpace=wrap;rounded=0;" vertex="1" parent="1">
          <mxGeometry x="-1053.75" y="-2250" width="191.25" height="20" as="geometry" />
        </mxCell>
        <mxCell id="vrpec3YslxEc7_vkl1N--54" value="CrÃ©ation/Modification Utilisateur :&amp;nbsp;&lt;br&gt;dans cette page l&#39;admin pourra crÃ©e ou modifier un utilisateur&amp;nbsp; &amp;nbsp;" style="rounded=0;whiteSpace=wrap;html=1;" vertex="1" parent="1">
          <mxGeometry x="-933.75" y="-2180" width="330" height="365" as="geometry" />
        </mxCell>
        <mxCell id="vrpec3YslxEc7_vkl1N--55" value="Logo iut&amp;nbsp;" style="rounded=0;whiteSpace=wrap;html=1;" vertex="1" parent="1">
          <mxGeometry x="-1060" y="-2230" width="470" height="40" as="geometry" />
        </mxCell>
        <mxCell id="vrpec3YslxEc7_vkl1N--56" value="Nom admin" style="text;html=1;strokeColor=none;fillColor=none;align=center;verticalAlign=middle;whiteSpace=wrap;rounded=0;" vertex="1" parent="1">
          <mxGeometry x="-643.75" y="-2220" width="40" height="20" as="geometry" />
        </mxCell>
        <mxCell id="vrpec3YslxEc7_vkl1N--72" value="" style="rounded=0;whiteSpace=wrap;html=1;" vertex="1" parent="1">
          <mxGeometry x="-1053.75" y="-2180" width="112.5" height="505" as="geometry" />
        </mxCell>
        <mxCell id="vrpec3YslxEc7_vkl1N--73" value="Nav" style="text;html=1;strokeColor=none;fillColor=none;align=center;verticalAlign=middle;whiteSpace=wrap;rounded=0;" vertex="1" parent="1">
          <mxGeometry x="-1048.5" y="-2175" width="40" height="20" as="geometry" />
        </mxCell>
        <mxCell id="vrpec3YslxEc7_vkl1N--74" value="Utilisateurs&amp;nbsp;&lt;br&gt;&lt;br&gt;&lt;br&gt;&lt;br&gt;&lt;br&gt;" style="rounded=0;whiteSpace=wrap;html=1;" vertex="1" parent="1">
          <mxGeometry x="-1048.5" y="-2155" width="100" height="105" as="geometry" />
        </mxCell>
        <mxCell id="vrpec3YslxEc7_vkl1N--75" value="-CrÃ©e/modifie&lt;br&gt;- List utilisateurs" style="rounded=0;whiteSpace=wrap;html=1;" vertex="1" parent="1">
          <mxGeometry x="-1043.75" y="-2120" width="90" height="60" as="geometry" />
        </mxCell>
        <mxCell id="vrpec3YslxEc7_vkl1N--76" value="Promotion&lt;br&gt;&amp;nbsp;&lt;br&gt;&lt;br&gt;&lt;br&gt;&lt;br&gt;" style="rounded=0;whiteSpace=wrap;html=1;" vertex="1" parent="1">
          <mxGeometry x="-1047.25" y="-2040" width="100" height="105" as="geometry" />
        </mxCell>
        <mxCell id="vrpec3YslxEc7_vkl1N--77" value="-CrÃ©e/modifie&lt;br&gt;- List Promotion" style="rounded=0;whiteSpace=wrap;html=1;" vertex="1" parent="1">
          <mxGeometry x="-1043.75" y="-2005" width="90" height="60" as="geometry" />
        </mxCell>
        <mxCell id="vrpec3YslxEc7_vkl1N--78" value="Campus&lt;br&gt;&lt;br&gt;&lt;br&gt;&lt;br&gt;&lt;br&gt;" style="rounded=0;whiteSpace=wrap;html=1;" vertex="1" parent="1">
          <mxGeometry x="-1049.75" y="-1920" width="100" height="105" as="geometry" />
        </mxCell>
        <mxCell id="vrpec3YslxEc7_vkl1N--79" value="IOT Devis&lt;br&gt;&lt;br&gt;&lt;br&gt;&lt;br&gt;" style="rounded=0;whiteSpace=wrap;html=1;" vertex="1" parent="1">
          <mxGeometry x="-1049.75" y="-1800" width="100" height="105" as="geometry" />
        </mxCell>
        <mxCell id="vrpec3YslxEc7_vkl1N--80" value="-CrÃ©e/modifie&lt;br&gt;- List campus" style="rounded=0;whiteSpace=wrap;html=1;" vertex="1" parent="1">
          <mxGeometry x="-1043.75" y="-1885" width="90" height="60" as="geometry" />
        </mxCell>
        <mxCell id="vrpec3YslxEc7_vkl1N--81" value="-CrÃ©e/modifie&lt;br&gt;- List utilisate" style="rounded=0;whiteSpace=wrap;html=1;" vertex="1" parent="1">
          <mxGeometry x="-1037.75" y="-1760" width="76" height="60" as="geometry" />
        </mxCell>
        <mxCell id="vrpec3YslxEc7_vkl1N--82" value="" style="rounded=0;whiteSpace=wrap;html=1;" vertex="1" parent="1">
          <mxGeometry x="242.5" y="-2230" width="112.5" height="505" as="geometry" />
        </mxCell>
        <mxCell id="vrpec3YslxEc7_vkl1N--83" value="Nav" style="text;html=1;strokeColor=none;fillColor=none;align=center;verticalAlign=middle;whiteSpace=wrap;rounded=0;" vertex="1" parent="1">
          <mxGeometry x="247.75" y="-2225" width="40" height="20" as="geometry" />
        </mxCell>
        <mxCell id="vrpec3YslxEc7_vkl1N--84" value="Utilisateurs&amp;nbsp;&lt;br&gt;&lt;br&gt;&lt;br&gt;&lt;br&gt;&lt;br&gt;" style="rounded=0;whiteSpace=wrap;html=1;" vertex="1" parent="1">
          <mxGeometry x="247.75" y="-2205" width="100" height="105" as="geometry" />
        </mxCell>
        <mxCell id="vrpec3YslxEc7_vkl1N--85" value="-CrÃ©e/modifie&lt;br&gt;- List utilisateurs" style="rounded=0;whiteSpace=wrap;html=1;" vertex="1" parent="1">
          <mxGeometry x="252.5" y="-2170" width="90" height="60" as="geometry" />
        </mxCell>
        <mxCell id="vrpec3YslxEc7_vkl1N--86" value="Promotion&lt;br&gt;&amp;nbsp;&lt;br&gt;&lt;br&gt;&lt;br&gt;&lt;br&gt;" style="rounded=0;whiteSpace=wrap;html=1;" vertex="1" parent="1">
          <mxGeometry x="249" y="-2090" width="100" height="105" as="geometry" />
        </mxCell>
        <mxCell id="vrpec3YslxEc7_vkl1N--87" value="-CrÃ©e/modifie&lt;br&gt;- List Promotion" style="rounded=0;whiteSpace=wrap;html=1;" vertex="1" parent="1">
          <mxGeometry x="252.5" y="-2055" width="90" height="60" as="geometry" />
        </mxCell>
        <mxCell id="vrpec3YslxEc7_vkl1N--88" value="Campus&lt;br&gt;&lt;br&gt;&lt;br&gt;&lt;br&gt;&lt;br&gt;" style="rounded=0;whiteSpace=wrap;html=1;" vertex="1" parent="1">
          <mxGeometry x="246.5" y="-1970" width="100" height="105" as="geometry" />
        </mxCell>
        <mxCell id="vrpec3YslxEc7_vkl1N--89" value="IOT Devis&lt;br&gt;&lt;br&gt;&lt;br&gt;&lt;br&gt;" style="rounded=0;whiteSpace=wrap;html=1;" vertex="1" parent="1">
          <mxGeometry x="246.5" y="-1850" width="100" height="105" as="geometry" />
        </mxCell>
        <mxCell id="vrpec3YslxEc7_vkl1N--90" value="-CrÃ©e/modifie&lt;br&gt;- List campus" style="rounded=0;whiteSpace=wrap;html=1;" vertex="1" parent="1">
          <mxGeometry x="252.5" y="-1935" width="90" height="60" as="geometry" />
        </mxCell>
        <mxCell id="vrpec3YslxEc7_vkl1N--91" value="-CrÃ©e/modifie&lt;br&gt;- List utilisate" style="rounded=0;whiteSpace=wrap;html=1;" vertex="1" parent="1">
          <mxGeometry x="258.5" y="-1810" width="76" height="60" as="geometry" />
        </mxCell>
        <mxCell id="vrpec3YslxEc7_vkl1N--92" value="" style="endArrow=classic;html=1;exitX=0;exitY=0.25;exitDx=0;exitDy=0;entryX=1;entryY=0.25;entryDx=0;entryDy=0;" edge="1" parent="1" source="vrpec3YslxEc7_vkl1N--25" target="vrpec3YslxEc7_vkl1N--47">
          <mxGeometry width="50" height="50" relative="1" as="geometry">
            <mxPoint x="190" y="-1330" as="sourcePoint" />
            <mxPoint x="-210" y="-1230" as="targetPoint" />
            <Array as="points">
              <mxPoint x="80" y="-1345" />
              <mxPoint x="80" y="-2096" />
            </Array>
          </mxGeometry>
        </mxCell>
        <mxCell id="vrpec3YslxEc7_vkl1N--93" value="&lt;span style=&quot;font-size: 12px ; background-color: rgb(248 , 249 , 250)&quot;&gt;click icon nav&lt;/span&gt;" style="edgeLabel;html=1;align=center;verticalAlign=middle;resizable=0;points=[];" vertex="1" connectable="0" parent="vrpec3YslxEc7_vkl1N--92">
          <mxGeometry x="0.4131" y="4" relative="1" as="geometry">
            <mxPoint as="offset" />
          </mxGeometry>
        </mxCell>
        <mxCell id="vrpec3YslxEc7_vkl1N--94" value="" style="rounded=0;whiteSpace=wrap;html=1;" vertex="1" parent="1">
          <mxGeometry x="-1080" y="-1505" width="485" height="355" as="geometry" />
        </mxCell>
        <mxCell id="vrpec3YslxEc7_vkl1N--95" value="" style="rounded=0;whiteSpace=wrap;html=1;" vertex="1" parent="1">
          <mxGeometry x="-1073.75" y="-1435" width="112.5" height="240" as="geometry" />
        </mxCell>
        <mxCell id="vrpec3YslxEc7_vkl1N--96" value="Page Utilisateur" style="text;html=1;strokeColor=none;fillColor=none;align=center;verticalAlign=middle;whiteSpace=wrap;rounded=0;" vertex="1" parent="1">
          <mxGeometry x="-1067.5" y="-1505" width="90" height="20" as="geometry" />
        </mxCell>
        <mxCell id="vrpec3YslxEc7_vkl1N--97" value="Nav" style="text;html=1;strokeColor=none;fillColor=none;align=center;verticalAlign=middle;whiteSpace=wrap;rounded=0;" vertex="1" parent="1">
          <mxGeometry x="-1073.75" y="-1435" width="40" height="20" as="geometry" />
        </mxCell>
        <mxCell id="vrpec3YslxEc7_vkl1N--98" value="Page Utilisateur" style="rounded=0;whiteSpace=wrap;html=1;" vertex="1" parent="1">
          <mxGeometry x="-1067.5" y="-1415" width="100" height="50" as="geometry" />
        </mxCell>
        <mxCell id="vrpec3YslxEc7_vkl1N--99" value="page Capteur" style="rounded=0;whiteSpace=wrap;html=1;" vertex="1" parent="1">
          <mxGeometry x="-1067.5" y="-1345" width="100" height="50" as="geometry" />
        </mxCell>
        <mxCell id="vrpec3YslxEc7_vkl1N--100" value="Liste Salle" style="rounded=0;whiteSpace=wrap;html=1;" vertex="1" parent="1">
          <mxGeometry x="-1067.5" y="-1265" width="100" height="50" as="geometry" />
        </mxCell>
        <mxCell id="vrpec3YslxEc7_vkl1N--101" value="Liste Utilisateur :&amp;nbsp;&lt;br&gt;dans cette page l&#39;admin pourra voir la liste de tout les utilisateur .il pourra cliquer sur une Icon pour faire une modification ou alors pour supprimer le compte. il pourra filtras les utilisateurs par classe si il veut.&amp;nbsp;&amp;nbsp;" style="rounded=0;whiteSpace=wrap;html=1;" vertex="1" parent="1">
          <mxGeometry x="-947.5" y="-1435" width="200" height="240" as="geometry" />
        </mxCell>
        <mxCell id="vrpec3YslxEc7_vkl1N--102" value="Logo iut&amp;nbsp;" style="rounded=0;whiteSpace=wrap;html=1;" vertex="1" parent="1">
          <mxGeometry x="-1073.75" y="-1485" width="470" height="40" as="geometry" />
        </mxCell>
        <mxCell id="vrpec3YslxEc7_vkl1N--103" value="Nom admin" style="text;html=1;strokeColor=none;fillColor=none;align=center;verticalAlign=middle;whiteSpace=wrap;rounded=0;" vertex="1" parent="1">
          <mxGeometry x="-657.5" y="-1475" width="40" height="20" as="geometry" />
        </mxCell>
        <mxCell id="vrpec3YslxEc7_vkl1N--104" value="Saissi d&#39;ajout ou de modification" style="rounded=0;whiteSpace=wrap;html=1;" vertex="1" parent="1">
          <mxGeometry x="-727.5" y="-1435" width="120" height="50" as="geometry" />
        </mxCell>
        <mxCell id="vrpec3YslxEc7_vkl1N--105" value="" style="rounded=0;whiteSpace=wrap;html=1;" vertex="1" parent="1">
          <mxGeometry x="-1081.25" y="-1507.5" width="485" height="585" as="geometry" />
        </mxCell>
        <mxCell id="vrpec3YslxEc7_vkl1N--107" value="Page List Utilisateur" style="text;html=1;strokeColor=none;fillColor=none;align=center;verticalAlign=middle;whiteSpace=wrap;rounded=0;" vertex="1" parent="1">
          <mxGeometry x="-1067.5" y="-1505" width="110" height="20" as="geometry" />
        </mxCell>
        <mxCell id="vrpec3YslxEc7_vkl1N--112" value="Liste Utilisateur :&amp;nbsp;&lt;br&gt;dans cette page l&#39;admin pourra voir la liste de tout les utilisateur .il pourra cliquer sur une Icon pour faire une modification ou alors pour supprimer le compte. il pourra filtras les utilisateurs par classe si il veut.&amp;nbsp;&amp;nbsp;&lt;br&gt;&lt;br&gt;&lt;br&gt;" style="rounded=0;whiteSpace=wrap;html=1;" vertex="1" parent="1">
          <mxGeometry x="-947.5" y="-1435" width="330" height="310" as="geometry" />
        </mxCell>
        <mxCell id="vrpec3YslxEc7_vkl1N--113" value="Logo iut&amp;nbsp;" style="rounded=0;whiteSpace=wrap;html=1;" vertex="1" parent="1">
          <mxGeometry x="-1073.75" y="-1485" width="470" height="40" as="geometry" />
        </mxCell>
        <mxCell id="vrpec3YslxEc7_vkl1N--114" value="Nom admin" style="text;html=1;strokeColor=none;fillColor=none;align=center;verticalAlign=middle;whiteSpace=wrap;rounded=0;" vertex="1" parent="1">
          <mxGeometry x="-657.5" y="-1475" width="40" height="20" as="geometry" />
        </mxCell>
        <mxCell id="vrpec3YslxEc7_vkl1N--118" value="" style="endArrow=classic;html=1;entryX=1.01;entryY=0.309;entryDx=0;entryDy=0;entryPerimeter=0;exitX=0;exitY=0.5;exitDx=0;exitDy=0;" edge="1" parent="1" source="vrpec3YslxEc7_vkl1N--25" target="vrpec3YslxEc7_vkl1N--105">
          <mxGeometry width="50" height="50" relative="1" as="geometry">
            <mxPoint x="-600" y="-1090" as="sourcePoint" />
            <mxPoint x="-550" y="-1140" as="targetPoint" />
          </mxGeometry>
        </mxCell>
        <mxCell id="vrpec3YslxEc7_vkl1N--129" value="&lt;span style=&quot;font-size: 12px ; background-color: rgb(248 , 249 , 250)&quot;&gt;click icon liste&lt;/span&gt;" style="edgeLabel;html=1;align=center;verticalAlign=middle;resizable=0;points=[];" vertex="1" connectable="0" parent="vrpec3YslxEc7_vkl1N--118">
          <mxGeometry x="0.7523" y="-5" relative="1" as="geometry">
            <mxPoint x="-1" as="offset" />
          </mxGeometry>
        </mxCell>
        <mxCell id="vrpec3YslxEc7_vkl1N--119" value="" style="rounded=0;whiteSpace=wrap;html=1;" vertex="1" parent="1">
          <mxGeometry x="-1070" y="-1435" width="112.5" height="505" as="geometry" />
        </mxCell>
        <mxCell id="vrpec3YslxEc7_vkl1N--120" value="Nav" style="text;html=1;strokeColor=none;fillColor=none;align=center;verticalAlign=middle;whiteSpace=wrap;rounded=0;" vertex="1" parent="1">
          <mxGeometry x="-1064.75" y="-1430" width="40" height="20" as="geometry" />
        </mxCell>
        <mxCell id="vrpec3YslxEc7_vkl1N--121" value="Utilisateurs&amp;nbsp;&lt;br&gt;&lt;br&gt;&lt;br&gt;&lt;br&gt;&lt;br&gt;" style="rounded=0;whiteSpace=wrap;html=1;" vertex="1" parent="1">
          <mxGeometry x="-1064.75" y="-1410" width="100" height="105" as="geometry" />
        </mxCell>
        <mxCell id="vrpec3YslxEc7_vkl1N--122" value="-CrÃ©e/modifie&lt;br&gt;- List utilisateurs" style="rounded=0;whiteSpace=wrap;html=1;" vertex="1" parent="1">
          <mxGeometry x="-1060" y="-1375" width="90" height="60" as="geometry" />
        </mxCell>
        <mxCell id="vrpec3YslxEc7_vkl1N--123" value="Promotion&lt;br&gt;&amp;nbsp;&lt;br&gt;&lt;br&gt;&lt;br&gt;&lt;br&gt;" style="rounded=0;whiteSpace=wrap;html=1;" vertex="1" parent="1">
          <mxGeometry x="-1063.5" y="-1295" width="100" height="105" as="geometry" />
        </mxCell>
        <mxCell id="vrpec3YslxEc7_vkl1N--124" value="-CrÃ©e/modifie&lt;br&gt;- List Promotion" style="rounded=0;whiteSpace=wrap;html=1;" vertex="1" parent="1">
          <mxGeometry x="-1060" y="-1260" width="90" height="60" as="geometry" />
        </mxCell>
        <mxCell id="vrpec3YslxEc7_vkl1N--125" value="Campus&lt;br&gt;&lt;br&gt;&lt;br&gt;&lt;br&gt;&lt;br&gt;" style="rounded=0;whiteSpace=wrap;html=1;" vertex="1" parent="1">
          <mxGeometry x="-1066" y="-1175" width="100" height="105" as="geometry" />
        </mxCell>
        <mxCell id="vrpec3YslxEc7_vkl1N--126" value="IOT Devis&lt;br&gt;&lt;br&gt;&lt;br&gt;&lt;br&gt;" style="rounded=0;whiteSpace=wrap;html=1;" vertex="1" parent="1">
          <mxGeometry x="-1066" y="-1055" width="100" height="105" as="geometry" />
        </mxCell>
        <mxCell id="vrpec3YslxEc7_vkl1N--127" value="-CrÃ©e/modifie&lt;br&gt;- List campus" style="rounded=0;whiteSpace=wrap;html=1;" vertex="1" parent="1">
          <mxGeometry x="-1060" y="-1140" width="90" height="60" as="geometry" />
        </mxCell>
        <mxCell id="vrpec3YslxEc7_vkl1N--128" value="-CrÃ©e/modifie&lt;br&gt;- List utilisate" style="rounded=0;whiteSpace=wrap;html=1;" vertex="1" parent="1">
          <mxGeometry x="-1054" y="-1015" width="76" height="60" as="geometry" />
        </mxCell>
      </root>
    </mxGraphModel>
  </diagram>
  <diagram id="yjz1uDXx_yGdPpsBm2Sv" name="Page-2">
    <mxGraphModel dx="1422" dy="794" grid="1" gridSize="10" guides="1" tooltips="1" connect="1" arrows="1" fold="1" page="1" pageScale="1" pageWidth="827" pageHeight="1169" math="0" shadow="0">
      <root>
        <mxCell id="MWNg60viDez2qhtSHrZ1-0" />
        <mxCell id="MWNg60viDez2qhtSHrZ1-1" parent="MWNg60viDez2qhtSHrZ1-0" />
      </root>
    </mxGraphModel>
  </diagram>
</mxfile>
